<svg width="202" height="202" viewBox="0 0 202 202" fill="none" xmlns="http://www.w3.org/2000/svg">
<circle opacity="0.202683" r="101" transform="matrix(0 -1 -1 0 101 101)" fill="url(#paint0_linear_0_6489)"/>
<rect x="126.429" y="172.025" width="47.2303" height="65.0554" transform="rotate(-180 126.429 172.025)" fill="white"/>
<path fill-rule="evenodd" clip-rule="evenodd" d="M79.211 172.359H126.435C126.523 172.36 126.608 172.326 126.67 172.263C126.732 172.199 126.765 172.113 126.762 172.025V106.951C126.762 106.773 126.618 106.63 126.441 106.63H79.211C79.0341 106.63 78.8906 106.773 78.8906 106.951V172.038C78.8906 172.215 79.0341 172.359 79.211 172.359ZM126.114 171.717H79.5251V107.29H126.114V171.717Z" fill="#231F20"/>
<path d="M124.34 114.594H81.2941C81.1171 114.594 80.9736 114.451 80.9736 114.274C80.977 114.098 81.1185 113.957 81.2941 113.953H124.34C124.517 113.953 124.66 114.097 124.66 114.274C124.66 114.359 124.626 114.44 124.566 114.5C124.506 114.561 124.425 114.594 124.34 114.594Z" fill="#D1D3D4"/>
<path d="M124.34 121.699H81.2941C81.1185 121.696 80.977 121.554 80.9736 121.379C80.9736 121.202 81.1171 121.058 81.2941 121.058H124.34C124.517 121.058 124.66 121.202 124.66 121.379C124.66 121.464 124.626 121.545 124.566 121.605C124.506 121.666 124.425 121.699 124.34 121.699Z" fill="#D1D3D4"/>
<path d="M124.34 128.798H81.2941C81.1185 128.795 80.977 128.653 80.9736 128.478C80.9736 128.301 81.1171 128.157 81.2941 128.157H124.34C124.517 128.157 124.66 128.301 124.66 128.478C124.66 128.563 124.626 128.644 124.566 128.705C124.506 128.765 124.425 128.798 124.34 128.798Z" fill="#D1D3D4"/>
<path d="M124.34 135.897H81.2941C81.1171 135.897 80.9736 135.754 80.9736 135.576C80.9736 135.399 81.1171 135.256 81.2941 135.256H124.34C124.517 135.256 124.66 135.399 124.66 135.576C124.66 135.754 124.517 135.897 124.34 135.897Z" fill="#D1D3D4"/>
<path d="M124.34 142.996H81.2941C81.1171 142.996 80.9736 142.852 80.9736 142.675C80.977 142.499 81.1185 142.358 81.2941 142.354H124.34C124.517 142.354 124.66 142.498 124.66 142.675C124.66 142.76 124.626 142.842 124.566 142.902C124.506 142.962 124.425 142.996 124.34 142.996Z" fill="#D1D3D4"/>
<path d="M124.34 150.101H81.2941C81.1185 150.097 80.977 149.956 80.9736 149.78C80.9736 149.603 81.1171 149.459 81.2941 149.459H124.34C124.517 149.459 124.66 149.603 124.66 149.78C124.66 149.865 124.626 149.947 124.566 150.007C124.506 150.067 124.425 150.101 124.34 150.101Z" fill="#D1D3D4"/>
<path d="M124.34 157.199H81.2941C81.1185 157.196 80.977 157.054 80.9736 156.879C80.9736 156.702 81.1171 156.558 81.2941 156.558H124.34C124.517 156.558 124.66 156.702 124.66 156.879C124.66 156.964 124.626 157.045 124.566 157.105C124.506 157.166 124.425 157.199 124.34 157.199Z" fill="#D1D3D4"/>
<path d="M124.34 164.298H81.2941C81.1171 164.298 80.9736 164.154 80.9736 163.977C80.9736 163.8 81.1171 163.657 81.2941 163.657H124.34C124.517 163.657 124.66 163.8 124.66 163.977C124.66 164.154 124.517 164.298 124.34 164.298Z" fill="#D1D3D4"/>
<rect x="126.436" y="106.963" width="40.2066" height="3.75776" transform="rotate(-180 126.436 106.963)" fill="#231F20"/>
<path fill-rule="evenodd" clip-rule="evenodd" d="M86.2218 107.291H126.435C126.523 107.289 126.606 107.252 126.666 107.188C126.727 107.124 126.759 107.039 126.755 106.951V103.212C126.755 103.035 126.612 102.892 126.435 102.892H86.2218C86.0448 102.892 85.9014 103.035 85.9014 103.212V106.97C85.9048 107.146 86.0463 107.287 86.2218 107.291ZM126.114 106.649H86.5422V103.533H126.114V106.649Z" fill="#231F20"/>
<rect x="56.9678" y="123.751" width="13.1565" height="48.2673" fill="white"/>
<path fill-rule="evenodd" clip-rule="evenodd" d="M56.9679 172.359H70.1244C70.2129 172.359 70.2974 172.323 70.3581 172.258C70.4188 172.194 70.4502 172.107 70.4449 172.019V123.752C70.4449 123.575 70.3014 123.431 70.1244 123.431H56.9679C56.7924 123.435 56.6509 123.576 56.6475 123.752V172.038C56.6475 172.215 56.7909 172.359 56.9679 172.359ZM69.8232 171.718H57.3075L57.2883 124.072H69.8232V171.718Z" fill="#231F20"/>
<rect x="31.6738" y="117.608" width="25.7299" height="54.417" fill="white"/>
<path fill-rule="evenodd" clip-rule="evenodd" d="M31.673 172.359H57.4221C57.5094 172.359 57.5929 172.323 57.6533 172.26C57.7138 172.197 57.746 172.112 57.7425 172.025V117.608C57.7425 117.431 57.5991 117.288 57.4221 117.288H31.673C31.496 117.288 31.3525 117.431 31.3525 117.608V172.038C31.3525 172.215 31.496 172.359 31.673 172.359ZM57.1017 171.717H32.0126L31.9934 117.929H57.1017V171.717Z" fill="#231F20"/>
<path d="M56.2631 124.04H32.8146C32.6376 124.04 32.4941 123.897 32.4941 123.72C32.4941 123.542 32.6376 123.399 32.8146 123.399H56.2631C56.44 123.399 56.5835 123.542 56.5835 123.72C56.5835 123.897 56.44 124.04 56.2631 124.04Z" fill="#D1D3D4"/>
<path d="M56.2631 129.985H32.8146C32.6376 129.985 32.4941 129.841 32.4941 129.664C32.4941 129.487 32.6376 129.343 32.8146 129.343H56.2631C56.44 129.343 56.5835 129.487 56.5835 129.664C56.5835 129.841 56.44 129.985 56.2631 129.985Z" fill="#D1D3D4"/>
<path d="M56.2631 135.923H32.8146C32.6376 135.923 32.4941 135.779 32.4941 135.602C32.4941 135.425 32.6376 135.281 32.8146 135.281H56.2631C56.44 135.281 56.5835 135.425 56.5835 135.602C56.5835 135.779 56.44 135.923 56.2631 135.923Z" fill="#D1D3D4"/>
<path d="M56.2631 141.86H32.8146C32.6376 141.86 32.4941 141.717 32.4941 141.54C32.4941 141.363 32.6376 141.219 32.8146 141.219H56.2631C56.44 141.219 56.5835 141.363 56.5835 141.54C56.5835 141.717 56.44 141.86 56.2631 141.86Z" fill="#D1D3D4"/>
<path d="M56.2631 147.798H32.8146C32.6376 147.798 32.4941 147.655 32.4941 147.478C32.4941 147.301 32.6376 147.157 32.8146 147.157H56.2631C56.44 147.157 56.5835 147.301 56.5835 147.478C56.5835 147.655 56.44 147.798 56.2631 147.798Z" fill="#D1D3D4"/>
<path d="M56.2631 153.762H32.8146C32.6376 153.762 32.4941 153.619 32.4941 153.442C32.4941 153.265 32.6376 153.121 32.8146 153.121H56.2631C56.44 153.121 56.5835 153.265 56.5835 153.442C56.5835 153.619 56.44 153.762 56.2631 153.762Z" fill="#D1D3D4"/>
<path d="M56.2631 159.674H32.8146C32.6376 159.674 32.4941 159.531 32.4941 159.354C32.4941 159.177 32.6376 159.033 32.8146 159.033H56.2631C56.44 159.033 56.5835 159.177 56.5835 159.354C56.5835 159.531 56.44 159.674 56.2631 159.674Z" fill="#D1D3D4"/>
<path d="M56.2631 165.613H32.8146C32.6376 165.613 32.4941 165.469 32.4941 165.292C32.4941 165.115 32.6376 164.972 32.8146 164.972H56.2631C56.44 164.972 56.5835 165.115 56.5835 165.292C56.5835 165.469 56.44 165.613 56.2631 165.613Z" fill="#D1D3D4"/>
<rect x="31.6738" y="114.466" width="21.9041" height="3.14215" fill="#231F20"/>
<path fill-rule="evenodd" clip-rule="evenodd" d="M31.673 117.929H53.577C53.754 117.929 53.8975 117.785 53.8975 117.608V114.466C53.8975 114.289 53.754 114.146 53.577 114.146H31.673C31.496 114.146 31.3525 114.289 31.3525 114.466V117.608C31.3525 117.785 31.496 117.929 31.673 117.929ZM53.2566 117.288H31.9934V114.787H53.2566V117.288Z" fill="#231F20"/>
<rect x="64.6836" y="128.035" width="2.42239" height="0.641256" fill="#D1D3D4"/>
<rect x="60.4346" y="135.05" width="2.42239" height="0.641256" fill="#D1D3D4"/>
<rect x="63.459" y="141.713" width="2.42239" height="0.641256" fill="#D1D3D4"/>
<path d="M93.5149 157.417C87.5614 147.895 72.4055 141.123 54.6476 141.123C36.8898 141.123 21.7403 147.895 15.7676 157.417H93.5149Z" fill="#E7816B"/>
<path fill-rule="evenodd" clip-rule="evenodd" d="M15.7674 157.712H93.5148C93.5919 157.689 93.6565 157.636 93.6942 157.565C93.7455 157.471 93.7455 157.357 93.6942 157.264C87.5741 147.433 71.8286 140.828 54.6026 140.828C37.3767 140.828 21.6568 147.433 15.5111 157.264C15.4559 157.356 15.4559 157.472 15.5111 157.565C15.5639 157.656 15.6617 157.713 15.7674 157.712ZM92.9765 157.129H16.3186C22.5604 147.709 37.8574 141.418 54.6475 141.418C71.4376 141.418 86.741 147.709 92.9765 157.129Z" fill="#231F20"/>
<path d="M92.1823 162.535H19.0618L15.8896 157.27H93.4127L92.1823 162.535Z" fill="#231F20"/>
<path fill-rule="evenodd" clip-rule="evenodd" d="M19.0619 162.855H92.1823C92.3421 162.869 92.4872 162.762 92.5219 162.605L93.7459 157.34C93.7692 157.247 93.7479 157.147 93.6883 157.071C93.6258 156.994 93.5314 156.949 93.4319 156.949H15.8897C15.7755 156.949 15.67 157.01 15.6141 157.11C15.557 157.211 15.557 157.335 15.6141 157.437L18.7863 162.701C18.8448 162.797 18.9494 162.856 19.0619 162.855ZM91.9259 162.214H19.2413L16.46 157.59H93.0026L91.9259 162.214Z" fill="#231F20"/>
<rect x="17.3184" y="162.535" width="76.0875" height="9.49058" fill="#231F20"/>
<path fill-rule="evenodd" clip-rule="evenodd" d="M17.3185 172.359H93.406C93.583 172.359 93.7264 172.215 93.7264 172.038V162.548C93.7264 162.371 93.583 162.227 93.406 162.227H17.3185C17.1415 162.227 16.998 162.371 16.998 162.548V172.038C16.998 172.215 17.1415 172.359 17.3185 172.359ZM93.0856 171.718H17.6389V162.868H93.0856V171.718Z" fill="#231F20"/>
<path d="M87.5808 158.514C82.6591 150.64 70.1306 145.048 55.4552 145.048C40.7799 145.048 28.2449 150.646 23.3232 158.514H87.5808Z" fill="#E7816B"/>
<path fill-rule="evenodd" clip-rule="evenodd" d="M23.3227 158.802H87.5803C87.6837 158.801 87.7785 158.745 87.8302 158.655C87.8816 158.563 87.8816 158.452 87.8302 158.36C82.7419 150.216 69.7327 144.746 55.4547 144.746C41.1767 144.746 28.1611 150.216 23.0728 158.36C23.0162 158.45 23.0134 158.563 23.0656 158.656C23.1179 158.748 23.2166 158.805 23.3227 158.802ZM87.042 158.251H23.861C29.0391 150.492 41.6381 145.368 55.4547 145.368C69.2713 145.368 81.8639 150.556 87.042 158.251Z" fill="#231F20"/>
<path fill-rule="evenodd" clip-rule="evenodd" d="M31.9619 158.835H78.9423C79.0641 158.846 79.1821 158.789 79.2499 158.687C79.3011 158.591 79.3011 158.476 79.2499 158.379C75.5137 150.21 65.9651 144.721 55.4745 144.721C44.9839 144.721 35.4289 150.21 31.6927 158.379C31.6415 158.476 31.6415 158.591 31.6927 158.687C31.7532 158.777 31.8536 158.832 31.9619 158.835ZM78.436 158.193H32.4682C36.2748 150.498 45.4132 145.368 55.4553 145.368C65.4973 145.368 74.6614 150.498 78.436 158.193Z" fill="#231F20"/>
<path fill-rule="evenodd" clip-rule="evenodd" d="M41.824 158.835H69.0791C69.1795 158.833 69.2737 158.786 69.3355 158.706C69.394 158.627 69.4129 158.526 69.3867 158.431C67.2143 150.229 61.6197 144.721 55.4548 144.721C49.2898 144.721 43.6889 150.229 41.5164 158.431C41.4903 158.526 41.5092 158.627 41.5677 158.706C41.6294 158.786 41.7236 158.833 41.824 158.835ZM68.6626 158.193H42.2405C44.413 150.498 49.6936 145.368 55.4548 145.368C61.216 145.368 66.4901 150.498 68.6626 158.193Z" fill="#231F20"/>
<path fill-rule="evenodd" clip-rule="evenodd" d="M51.3923 158.835H59.5118C59.6014 158.834 59.6869 158.797 59.7489 158.732C59.8076 158.665 59.8375 158.577 59.8322 158.488C59.3003 151.832 57.9161 144.721 55.4553 144.721C52.9944 144.721 51.5974 151.832 51.0719 158.488C51.0666 158.577 51.0965 158.665 51.1552 158.732C51.2172 158.797 51.3027 158.834 51.3923 158.835ZM59.1658 158.193H51.7384C52.4433 149.767 54.1351 145.368 55.4553 145.368C56.7754 145.368 58.4608 149.767 59.1658 158.193Z" fill="#231F20"/>
<path d="M86.4786 162.74H24.4256L23.4131 158.386H87.4912L86.4786 162.74Z" fill="white"/>
<path fill-rule="evenodd" clip-rule="evenodd" d="M24.4252 163.06H86.4782C86.6309 163.064 86.7651 162.959 86.7986 162.81L87.8112 158.463C87.8345 158.367 87.8133 158.265 87.7535 158.187C87.691 158.109 87.5967 158.064 87.4972 158.065H23.4127C23.3147 158.063 23.2219 158.109 23.1627 158.187C23.1007 158.264 23.0771 158.366 23.0986 158.463L24.1112 162.81C24.1442 162.957 24.2748 163.061 24.4252 163.06ZM86.2027 162.419H24.6815L23.8164 158.706H87.0678L86.2027 162.419Z" fill="#231F20"/>
<rect x="23.4131" y="162.74" width="64.0845" height="9.28538" fill="#E7816B"/>
<path fill-rule="evenodd" clip-rule="evenodd" d="M23.4061 172.32H87.4906C87.5688 172.32 87.6438 172.289 87.6991 172.234C87.7544 172.178 87.7854 172.103 87.7854 172.025V162.74C87.7854 162.577 87.6534 162.445 87.4906 162.445H23.4061C23.2433 162.445 23.1113 162.577 23.1113 162.74V172.025C23.1113 172.188 23.2433 172.32 23.4061 172.32ZM87.2022 171.717H23.7009V163.035H87.2022V171.717Z" fill="#231F20"/>
<path d="M87.0807 160.887H25.6173C25.4403 160.887 25.2969 160.743 25.2969 160.566C25.2969 160.389 25.4403 160.246 25.6173 160.246H87.0807C87.2577 160.246 87.4012 160.389 87.4012 160.566C87.4012 160.743 87.2577 160.887 87.0807 160.887Z" fill="#D1D3D4"/>
<rect x="25.9121" y="165.35" width="12.1761" height="6.67547" fill="#231F20"/>
<path fill-rule="evenodd" clip-rule="evenodd" d="M25.9191 172.359H38.0951C38.1824 172.359 38.2659 172.323 38.3263 172.26C38.3868 172.198 38.419 172.113 38.4155 172.025V165.35C38.4121 165.174 38.2706 165.033 38.0951 165.029H25.9191C25.7435 165.033 25.602 165.174 25.5986 165.35V172.038C25.5986 172.215 25.7421 172.359 25.9191 172.359ZM37.7683 171.718H26.2331V165.683H37.7683V171.718Z" fill="#231F20"/>
<path d="M29.0265 172.359C28.8495 172.359 28.7061 172.215 28.7061 172.038V165.35C28.7061 165.173 28.8495 165.029 29.0265 165.029C29.2034 165.029 29.3469 165.173 29.3469 165.35V172.025C29.3504 172.113 29.3182 172.198 29.2577 172.26C29.1972 172.323 29.1137 172.359 29.0265 172.359Z" fill="white"/>
<path d="M32.0069 172.359C31.83 172.359 31.6865 172.215 31.6865 172.038V165.35C31.6865 165.173 31.83 165.029 32.0069 165.029C32.1825 165.033 32.324 165.174 32.3274 165.35V172.025C32.3309 172.113 32.2986 172.198 32.2382 172.26C32.1777 172.323 32.0942 172.359 32.0069 172.359Z" fill="white"/>
<path d="M34.9933 172.359C34.8163 172.359 34.6729 172.215 34.6729 172.038V165.35C34.6763 165.174 34.8177 165.033 34.9933 165.029C35.1702 165.029 35.3137 165.173 35.3137 165.35V172.025C35.3172 172.113 35.285 172.198 35.2245 172.26C35.164 172.323 35.0805 172.359 34.9933 172.359Z" fill="white"/>
<rect x="41.5488" y="165.35" width="12.1761" height="6.67547" fill="#231F20"/>
<path fill-rule="evenodd" clip-rule="evenodd" d="M41.5489 172.359H53.725C53.8122 172.359 53.8957 172.323 53.9562 172.26C54.0167 172.198 54.0489 172.113 54.0454 172.025V165.35C54.0454 165.173 53.902 165.029 53.725 165.029H41.5489C41.372 165.029 41.2285 165.173 41.2285 165.35V172.038C41.2285 172.215 41.372 172.359 41.5489 172.359ZM53.4046 171.718H41.8694V165.683H53.4046V171.718Z" fill="#231F20"/>
<path d="M44.6573 172.359C44.4804 172.359 44.3369 172.215 44.3369 172.038V165.35C44.3403 165.174 44.4818 165.033 44.6573 165.029C44.8343 165.029 44.9778 165.173 44.9778 165.35V172.025C44.9812 172.113 44.949 172.198 44.8886 172.26C44.8281 172.323 44.7446 172.359 44.6573 172.359Z" fill="white"/>
<path d="M47.6368 172.359C47.4599 172.359 47.3164 172.215 47.3164 172.038V165.35C47.3164 165.173 47.4599 165.029 47.6368 165.029C47.8138 165.029 47.9573 165.173 47.9573 165.35V172.025C47.9607 172.113 47.9285 172.198 47.8681 172.26C47.8076 172.323 47.7241 172.359 47.6368 172.359Z" fill="white"/>
<path d="M50.6163 172.359C50.4394 172.359 50.2959 172.215 50.2959 172.038V165.35C50.2959 165.173 50.4394 165.029 50.6163 165.029C50.7919 165.033 50.9333 165.174 50.9367 165.35V172.025C50.9402 172.113 50.908 172.198 50.8475 172.26C50.7871 172.323 50.7036 172.359 50.6163 172.359Z" fill="white"/>
<rect x="57.1787" y="165.35" width="12.1761" height="6.67547" fill="#231F20"/>
<path fill-rule="evenodd" clip-rule="evenodd" d="M57.1788 172.359H69.3549C69.4421 172.359 69.5256 172.323 69.5861 172.26C69.6466 172.198 69.6788 172.113 69.6753 172.025V165.35C69.6753 165.173 69.5318 165.029 69.3549 165.029H57.1788C57.0019 165.029 56.8584 165.173 56.8584 165.35V172.038C56.8584 172.215 57.0019 172.359 57.1788 172.359ZM69.0345 171.718H57.4992V165.683H69.0345V171.718Z" fill="#231F20"/>
<path d="M60.2931 172.359C60.1161 172.359 59.9727 172.215 59.9727 172.038V165.35C59.9727 165.173 60.1161 165.029 60.2931 165.029C60.4686 165.033 60.6101 165.174 60.6135 165.35V172.025C60.617 172.113 60.5848 172.198 60.5243 172.26C60.4638 172.323 60.3803 172.359 60.2931 172.359Z" fill="white"/>
<path d="M63.2667 172.359C63.0897 172.359 62.9463 172.215 62.9463 172.038V165.35C62.9497 165.174 63.0912 165.033 63.2667 165.029C63.4437 165.029 63.5871 165.173 63.5871 165.35V172.025C63.5906 172.113 63.5584 172.198 63.4979 172.26C63.4375 172.323 63.354 172.359 63.2667 172.359Z" fill="white"/>
<path d="M66.2472 172.359C66.0702 172.359 65.9268 172.215 65.9268 172.038V165.35C65.9268 165.173 66.0702 165.029 66.2472 165.029C66.4227 165.033 66.5642 165.174 66.5676 165.35V172.025C66.5711 172.113 66.5389 172.198 66.4784 172.26C66.4179 172.323 66.3344 172.359 66.2472 172.359Z" fill="white"/>
<rect x="72.8096" y="165.35" width="12.1761" height="6.67547" fill="#231F20"/>
<path fill-rule="evenodd" clip-rule="evenodd" d="M72.8028 172.359H84.9789C85.0662 172.359 85.1497 172.323 85.2101 172.26C85.2706 172.198 85.3028 172.113 85.2993 172.025V165.35C85.2959 165.174 85.1544 165.033 84.9789 165.029H72.8028C72.6273 165.033 72.4858 165.174 72.4824 165.35V172.038C72.4824 172.215 72.6259 172.359 72.8028 172.359ZM84.6521 171.718H73.1169V165.683H84.6521V171.718Z" fill="#231F20"/>
<path d="M75.9239 172.359C75.747 172.359 75.6035 172.215 75.6035 172.038V165.35C75.6035 165.173 75.747 165.029 75.9239 165.029C76.0995 165.033 76.241 165.174 76.2444 165.35V172.025C76.2479 172.113 76.2156 172.198 76.1552 172.26C76.0947 172.323 76.0112 172.359 75.9239 172.359Z" fill="white"/>
<path d="M78.8976 172.359C78.7206 172.359 78.5771 172.215 78.5771 172.038V165.35C78.5806 165.174 78.722 165.033 78.8976 165.029C79.0745 165.029 79.218 165.173 79.218 165.35V172.025C79.2215 172.113 79.1893 172.198 79.1288 172.26C79.0683 172.323 78.9848 172.359 78.8976 172.359Z" fill="white"/>
<path d="M81.8771 172.359C81.7001 172.359 81.5566 172.215 81.5566 172.038V165.35C81.5566 165.173 81.7001 165.029 81.8771 165.029C82.054 165.029 82.1975 165.173 82.1975 165.35V172.025C82.201 172.113 82.1688 172.198 82.1083 172.26C82.0478 172.323 81.9643 172.359 81.8771 172.359Z" fill="white"/>
<path d="M95.5528 36.8357C95.3759 36.8357 95.2324 36.6921 95.2324 36.515V30.9105C95.2324 30.7334 95.3759 30.5898 95.5528 30.5898C95.7284 30.5933 95.8699 30.7348 95.8733 30.9105V36.515C95.8699 36.6907 95.7284 36.8323 95.5528 36.8357Z" fill="#231F20"/>
<rect x="92.9443" y="63.916" width="5.21648" height="3.61027" fill="#E7816B"/>
<path fill-rule="evenodd" clip-rule="evenodd" d="M92.9442 67.8341H98.1607C98.24 67.8324 98.3153 67.7988 98.3696 67.7409C98.4239 67.683 98.4525 67.6056 98.4491 67.5263V63.916C98.4491 63.7566 98.3199 63.6274 98.1607 63.6274H92.9442C92.7839 63.6274 92.6529 63.7556 92.6494 63.916V67.5391C92.6528 67.7006 92.7828 67.8307 92.9442 67.8341ZM97.8659 67.2441H93.239V64.211H97.8659V67.2441Z" fill="#231F20"/>
<rect x="91.9189" y="61.5884" width="7.26718" height="2.33417" fill="white"/>
<path fill-rule="evenodd" clip-rule="evenodd" d="M91.9191 64.2366H99.1862C99.2712 64.2366 99.3527 64.2028 99.4128 64.1427C99.4729 64.0826 99.5067 64.001 99.5067 63.916V61.5882C99.5067 61.4111 99.3632 61.2676 99.1862 61.2676H91.9191C91.7421 61.2676 91.5986 61.4111 91.5986 61.5882V63.916C91.5986 64.093 91.7421 64.2366 91.9191 64.2366ZM98.8658 63.5953H92.2395V61.9088H98.8658V63.5953Z" fill="#231F20"/>
<path d="M94.1489 41.4272H96.9558L97.5197 61.5883H93.585L94.1489 41.4272Z" fill="#E7816B"/>
<path fill-rule="evenodd" clip-rule="evenodd" d="M93.5859 61.8769H97.5207C97.5928 61.8737 97.6612 61.844 97.7129 61.7936C97.7651 61.7353 97.7946 61.6602 97.7962 61.582L97.2515 41.4209C97.248 41.2605 97.117 41.1323 96.9567 41.1323H94.1498C93.9895 41.1323 93.8585 41.2605 93.855 41.4209L93.2911 61.582C93.2895 61.6608 93.3195 61.737 93.3744 61.7936C93.4296 61.8505 93.5067 61.8809 93.5859 61.8769ZM97.2195 61.2934H93.8871L94.4318 41.7223H96.6683L97.2195 61.2934Z" fill="#231F20"/>
<path d="M98.469 49.9881C98.469 50.3728 98.1614 50.7255 97.6551 50.982H93.4447C92.9385 50.7255 92.6309 50.3728 92.6309 49.9881C92.681 49.5666 92.9559 49.2057 93.3486 49.0454H97.7961C98.1697 49.2202 98.4249 49.5777 98.469 49.9881Z" fill="white"/>
<path fill-rule="evenodd" clip-rule="evenodd" d="M93.4448 51.3027H97.6552C97.7035 51.3152 97.7543 51.3152 97.8026 51.3027C98.3487 51.098 98.7314 50.6008 98.7895 50.0202C98.743 49.4837 98.4093 49.0148 97.9179 48.7954C97.8687 48.7691 97.8135 48.7558 97.7577 48.7569H93.3487C93.2929 48.7558 93.2377 48.7691 93.1885 48.7954C92.6946 49.013 92.3582 49.4823 92.3105 50.0202C92.3698 50.6024 92.7552 51.1 93.3039 51.3027C93.35 51.3152 93.3987 51.3152 93.4448 51.3027ZM97.5783 50.6614H93.5282C93.1629 50.4626 92.9514 50.3151 92.9514 50.0202C92.9514 49.7252 93.227 49.5072 93.432 49.3789H97.6744C97.9756 49.5905 98.1486 49.8214 98.1486 50.0202C98.1486 50.219 97.9436 50.4626 97.5783 50.6614Z" fill="#231F20"/>
<path d="M94.5655 35.9893H96.5394L96.6547 41.4271H94.4502L94.5655 35.9893Z" fill="#231F20"/>
<path fill-rule="evenodd" clip-rule="evenodd" d="M94.4504 41.7476H96.6549C96.732 41.739 96.8041 41.7052 96.86 41.6514C96.9173 41.5882 96.9493 41.506 96.9497 41.4206L96.8344 35.9827C96.8344 35.8983 96.8004 35.8174 96.7401 35.7583C96.6798 35.6991 96.5983 35.6668 96.5139 35.6685H94.5658C94.4814 35.6668 94.3998 35.6991 94.3396 35.7583C94.2793 35.8174 94.2453 35.8983 94.2453 35.9827L94.13 41.4206C94.1278 41.5065 94.1601 41.5896 94.2197 41.6514C94.2808 41.7128 94.3638 41.7474 94.4504 41.7476ZM96.3281 41.1064H94.7772L94.8798 36.3098H96.2256L96.3281 41.1064Z" fill="#231F20"/>
<path d="M88.8629 67.3789H102.237C102.843 67.3789 103.333 67.8698 103.333 68.4755V70.2453H87.7734V68.4755C87.7734 67.8723 88.2602 67.3824 88.8629 67.3789V67.3789Z" fill="white"/>
<path fill-rule="evenodd" clip-rule="evenodd" d="M87.7726 70.5658H103.332C103.509 70.5658 103.653 70.4222 103.653 70.2451V68.4753C103.653 67.6926 103.019 67.0581 102.236 67.0581H88.862C88.0823 67.0616 87.4521 67.6951 87.4521 68.4753V70.2451C87.4521 70.4222 87.5956 70.5658 87.7726 70.5658ZM103.012 69.9245H88.093V68.4753C88.093 68.0492 88.4363 67.7029 88.862 67.6994H102.236C102.442 67.6994 102.639 67.7811 102.785 67.9266C102.93 68.0721 103.012 68.2695 103.012 68.4753V69.9245Z" fill="#231F20"/>
<rect x="92.3613" y="81.5186" width="6.38282" height="90.5068" fill="#231F20"/>
<path fill-rule="evenodd" clip-rule="evenodd" d="M92.336 172.359H98.7445C98.8317 172.359 98.9153 172.323 98.9757 172.26C99.0362 172.197 99.0684 172.112 99.0649 172.025V81.5184C99.0615 81.3427 98.92 81.2012 98.7445 81.1978H92.336C92.1591 81.1978 92.0156 81.3413 92.0156 81.5184V172.038C92.0156 172.215 92.1591 172.359 92.336 172.359ZM98.4369 171.717H92.6693V81.839H98.4369V171.717Z" fill="#231F20"/>
<path d="M97.8857 84.3463H93.214C93.037 84.3463 92.8936 84.2028 92.8936 84.0257C92.897 83.8501 93.0384 83.7085 93.214 83.7051H97.8857C98.0627 83.7051 98.2062 83.8486 98.2062 84.0257C98.2062 84.2028 98.0627 84.3463 97.8857 84.3463Z" fill="white"/>
<path d="M97.9111 85.7892H93.1944C93.0175 85.7892 92.874 85.6457 92.874 85.4686C92.874 85.2915 93.0175 85.1479 93.1944 85.1479H97.9111C98.088 85.1479 98.2315 85.2915 98.2315 85.4686C98.2315 85.6457 98.088 85.7892 97.9111 85.7892Z" fill="white"/>
<path d="M97.9305 87.3024H93.1691C92.9935 87.299 92.852 87.1574 92.8486 86.9818C92.8486 86.8047 92.9921 86.6611 93.1691 86.6611H97.9305C98.1075 86.6611 98.251 86.8047 98.251 86.9818C98.251 87.1588 98.1075 87.3024 97.9305 87.3024Z" fill="white"/>
<path d="M97.9559 88.8224H93.1495C92.9726 88.8224 92.8291 88.6789 92.8291 88.5018C92.8291 88.3247 92.9726 88.1812 93.1495 88.1812H97.9559C98.1328 88.1812 98.2763 88.3247 98.2763 88.5018C98.2763 88.6789 98.1328 88.8224 97.9559 88.8224Z" fill="white"/>
<path d="M97.9817 90.3742H93.1241C92.9472 90.3742 92.8037 90.2306 92.8037 90.0535C92.8037 89.8765 92.9472 89.7329 93.1241 89.7329H97.9817C98.1587 89.7329 98.3022 89.8765 98.3022 90.0535C98.3022 90.2306 98.1587 90.3742 97.9817 90.3742Z" fill="white"/>
<path d="M98.0076 91.9518H93.0987C92.9218 91.9518 92.7783 91.8083 92.7783 91.6312C92.7783 91.4541 92.9218 91.3105 93.0987 91.3105H98.0076C98.1831 91.314 98.3246 91.4555 98.328 91.6312C98.328 91.8083 98.1846 91.9518 98.0076 91.9518Z" fill="white"/>
<path d="M98.0325 93.5675H93.0724C92.8954 93.5675 92.752 93.424 92.752 93.2469C92.752 93.0698 92.8954 92.9263 93.0724 92.9263H98.0325C98.2095 92.9263 98.3529 93.0698 98.3529 93.2469C98.3529 93.424 98.2095 93.5675 98.0325 93.5675Z" fill="white"/>
<path d="M98.0584 95.2155H93.047C92.87 95.2155 92.7266 95.0719 92.7266 94.8948C92.7266 94.7178 92.87 94.5742 93.047 94.5742H98.0584C98.2354 94.5742 98.3788 94.7178 98.3788 94.8948C98.3788 95.0719 98.2354 95.2155 98.0584 95.2155Z" fill="white"/>
<path d="M98.0843 96.8957H93.0216C92.8446 96.8957 92.7012 96.7521 92.7012 96.575C92.7012 96.3979 92.8446 96.2544 93.0216 96.2544H98.0843C98.2598 96.2578 98.4013 96.3994 98.4047 96.575C98.4047 96.7521 98.2612 96.8957 98.0843 96.8957Z" fill="white"/>
<path d="M98.1103 98.6144H92.9835C92.8065 98.6144 92.6631 98.4709 92.6631 98.2938C92.6631 98.1167 92.8065 97.9731 92.9835 97.9731H98.1103C98.2872 97.9731 98.4307 98.1167 98.4307 98.2938C98.4307 98.4709 98.2872 98.6144 98.1103 98.6144Z" fill="white"/>
<path d="M98.135 100.365H92.9698C92.7929 100.365 92.6494 100.221 92.6494 100.044C92.6494 99.8672 92.7929 99.7236 92.9698 99.7236H98.135C98.312 99.7236 98.4555 99.8672 98.4555 100.044C98.4555 100.221 98.312 100.365 98.135 100.365Z" fill="white"/>
<path d="M98.1615 102.16H92.9386C92.7631 102.157 92.6216 102.015 92.6182 101.84C92.6182 101.663 92.7616 101.519 92.9386 101.519H98.1615C98.3384 101.519 98.4819 101.663 98.4819 101.84C98.4819 102.017 98.3384 102.16 98.1615 102.16Z" fill="white"/>
<path d="M98.1928 103.988H92.9122C92.7353 103.988 92.5918 103.844 92.5918 103.667C92.5918 103.49 92.7353 103.347 92.9122 103.347H98.1928C98.3683 103.35 98.5098 103.492 98.5132 103.667C98.5132 103.844 98.3697 103.988 98.1928 103.988Z" fill="white"/>
<path d="M98.2192 105.86H92.881C92.7054 105.857 92.564 105.716 92.5605 105.54C92.5605 105.363 92.704 105.219 92.881 105.219H98.2192C98.3962 105.219 98.5396 105.363 98.5396 105.54C98.5396 105.717 98.3962 105.86 98.2192 105.86Z" fill="white"/>
<path d="M98.2505 107.772H92.8546C92.6776 107.772 92.5342 107.628 92.5342 107.451C92.5342 107.274 92.6776 107.13 92.8546 107.13H98.2505C98.4275 107.13 98.5709 107.274 98.5709 107.451C98.5709 107.628 98.4275 107.772 98.2505 107.772Z" fill="white"/>
<path d="M98.2824 109.727H92.8224C92.6454 109.727 92.502 109.584 92.502 109.407C92.502 109.229 92.6454 109.086 92.8224 109.086H98.2824C98.4593 109.086 98.6028 109.229 98.6028 109.407C98.5994 109.582 98.4579 109.724 98.2824 109.727Z" fill="white"/>
<path d="M98.3152 111.728H92.7911C92.6142 111.728 92.4707 111.585 92.4707 111.408C92.4707 111.23 92.6142 111.087 92.7911 111.087H98.3152C98.4922 111.087 98.6356 111.23 98.6356 111.408C98.6322 111.583 98.4907 111.725 98.3152 111.728Z" fill="white"/>
<path d="M98.3407 113.767H92.7589C92.5819 113.767 92.4385 113.624 92.4385 113.447C92.4419 113.271 92.5834 113.129 92.7589 113.126H98.3407C98.5176 113.126 98.6611 113.27 98.6611 113.447C98.6611 113.624 98.5176 113.767 98.3407 113.767Z" fill="white"/>
<path d="M98.3789 115.864H92.7267C92.5497 115.864 92.4062 115.72 92.4062 115.543C92.4062 115.366 92.5497 115.223 92.7267 115.223H98.3789C98.5559 115.223 98.6993 115.366 98.6993 115.543C98.6959 115.719 98.5545 115.861 98.3789 115.864Z" fill="white"/>
<path d="M98.4367 118.006H92.6691C92.4921 118.006 92.3486 117.862 92.3486 117.685C92.3486 117.508 92.4921 117.365 92.6691 117.365H98.4367C98.6136 117.365 98.7571 117.508 98.7571 117.685C98.7537 117.861 98.6122 118.003 98.4367 118.006Z" fill="white"/>
<path d="M98.4367 120.199H92.6691C92.4921 120.199 92.3486 120.055 92.3486 119.878C92.3486 119.701 92.4921 119.558 92.6691 119.558H98.4367C98.6136 119.558 98.7571 119.701 98.7571 119.878C98.7571 120.055 98.6136 120.199 98.4367 120.199Z" fill="white"/>
<path d="M98.475 122.444H92.6241C92.4486 122.44 92.3071 122.299 92.3037 122.123C92.3037 121.946 92.4472 121.802 92.6241 121.802H98.475C98.652 121.802 98.7955 121.946 98.7955 122.123C98.7955 122.3 98.652 122.444 98.475 122.444Z" fill="white"/>
<path d="M98.5133 124.739H92.5919C92.4149 124.739 92.2715 124.595 92.2715 124.418C92.2715 124.241 92.4149 124.098 92.5919 124.098H98.5133C98.6903 124.098 98.8337 124.241 98.8337 124.418C98.8337 124.595 98.6903 124.739 98.5133 124.739Z" fill="white"/>
<rect x="92.5537" y="126.458" width="5.99831" height="0.641256" fill="white"/>
<rect x="92.5156" y="128.875" width="6.07521" height="0.641256" fill="white"/>
<rect x="92.4766" y="131.351" width="6.1457" height="0.641256" fill="white"/>
<rect x="92.4385" y="133.89" width="6.22901" height="0.641256" fill="white"/>
<rect x="92.3994" y="136.493" width="6.30592" height="0.641256" fill="white"/>
<rect x="92.3555" y="139.167" width="6.38923" height="0.641256" fill="white"/>
<rect x="92.3164" y="141.918" width="6.47894" height="0.641256" fill="white"/>
<rect x="92.2715" y="144.733" width="6.56225" height="0.641256" fill="white"/>
<rect x="92.2266" y="147.632" width="6.65197" height="0.641256" fill="white"/>
<rect x="92.1816" y="150.607" width="6.7481" height="0.641256" fill="white"/>
<rect x="92.1309" y="153.672" width="6.83782" height="0.641256" fill="white"/>
<rect x="92.0791" y="156.821" width="6.94035" height="0.641256" fill="white"/>
<rect x="92.0342" y="160.06" width="7.03648" height="0.641256" fill="white"/>
<rect x="91.9834" y="163.394" width="7.13901" height="0.641256" fill="white"/>
<rect x="91.9258" y="166.831" width="7.24796" height="0.641256" fill="white"/>
<path d="M92.6691 172.025C95.0146 141.803 95.1428 81.5186 95.1428 81.5186H92.5281C88.8304 151.249 85.2802 168.088 84.0049 172.025H92.6691Z" fill="#E7816B"/>
<path fill-rule="evenodd" clip-rule="evenodd" d="M83.9919 172.32H92.6689C92.8126 172.312 92.9291 172.201 92.9445 172.057C95.2643 142.168 95.4246 82.1341 95.4246 81.5313C95.4232 81.4549 95.3935 81.3818 95.3412 81.3261C95.2854 81.2694 95.2093 81.2371 95.1298 81.2363H92.5151C92.3597 81.2396 92.2335 81.363 92.2267 81.5185C88.5547 150.704 85.0493 167.799 83.7163 171.936C83.6867 172.024 83.701 172.122 83.7548 172.198C83.8106 172.274 83.8982 172.319 83.9919 172.32ZM92.3934 171.73H84.402L84.3892 171.717C85.8119 166.953 89.2276 148.902 92.7971 81.8135H94.835C94.8222 86.4305 94.5915 142.861 92.3934 171.73Z" fill="#231F20"/>
<path d="M107.108 172.025C105.826 168.082 102.282 151.249 98.5844 81.5186H95.9697C95.9697 81.5186 96.1043 141.797 98.4498 172.025H107.108Z" fill="#E7816B"/>
<path fill-rule="evenodd" clip-rule="evenodd" d="M98.4364 172.32H107.107C107.199 172.315 107.283 172.265 107.331 172.186C107.387 172.11 107.404 172.013 107.376 171.923C106.037 167.8 102.538 150.704 98.8658 81.5058C98.8589 81.3479 98.7289 81.2235 98.571 81.2236H95.9563C95.8787 81.2247 95.8048 81.2571 95.7513 81.3134C95.699 81.3691 95.6693 81.4422 95.668 81.5186C95.668 82.1214 95.8218 142.156 98.148 172.045C98.1549 172.199 98.282 172.321 98.4364 172.32ZM106.71 171.718H98.7184C96.5139 142.861 96.2768 86.4306 96.264 81.8008H98.3083C101.871 148.889 105.293 166.94 106.71 171.718Z" fill="#231F20"/>
<path d="M87.773 78.6519H103.333V80.4217C103.333 81.0273 102.842 81.5183 102.237 81.5183H88.8624C88.2572 81.5183 87.7666 81.0273 87.7666 80.4217V78.6519L87.773 78.6519Z" fill="white"/>
<path fill-rule="evenodd" clip-rule="evenodd" d="M88.862 81.8392H102.236C103.019 81.8392 103.653 81.2047 103.653 80.422V78.6522C103.653 78.4751 103.509 78.3315 103.332 78.3315H87.7726C87.5956 78.3315 87.4521 78.4751 87.4521 78.6522V80.422C87.4521 81.2022 88.0823 81.8357 88.862 81.8392ZM88.093 80.422V78.9728H103.012V80.422C103.012 80.8506 102.665 81.198 102.236 81.198H88.862C88.4363 81.1944 88.093 80.8481 88.093 80.422Z" fill="#231F20"/>
<rect x="85.6709" y="68.8154" width="19.7573" height="10.818" rx="3.18" fill="#E7816B"/>
<path fill-rule="evenodd" clip-rule="evenodd" d="M87.7155 79.9215H103.391C104.679 79.9215 105.723 78.8765 105.723 77.5874V70.8542C105.723 69.5651 104.679 68.52 103.391 68.52H87.7155C86.4272 68.52 85.3828 69.5651 85.3828 70.8542V77.5874C85.3828 78.8765 86.4272 79.9215 87.7155 79.9215ZM86.4788 69.625C86.8071 69.2977 87.2521 69.1147 87.7155 69.1164H103.391C104.352 69.1164 105.133 69.8924 105.14 70.8542V77.5938C105.14 78.5606 104.357 79.3444 103.391 79.3444H87.7155C86.7493 79.3444 85.966 78.5606 85.966 77.5938V70.8606C85.966 70.3969 86.1505 69.9523 86.4788 69.625Z" fill="#231F20"/>
<path d="M106.018 71.8742H85.088C84.911 71.8742 84.7676 71.7306 84.7676 71.5535C84.7676 71.3765 84.911 71.2329 85.088 71.2329H106.018C106.195 71.2329 106.338 71.3765 106.338 71.5535C106.338 71.7306 106.195 71.8742 106.018 71.8742Z" fill="#231F20"/>
<path d="M106.018 74.5416H85.088C84.911 74.5416 84.7676 74.3981 84.7676 74.221C84.7676 74.0439 84.911 73.9004 85.088 73.9004H106.018C106.194 73.9038 106.335 74.0454 106.338 74.221C106.338 74.3981 106.195 74.5416 106.018 74.5416Z" fill="#231F20"/>
<path d="M106.018 77.2091H85.088C84.911 77.2091 84.7676 77.0656 84.7676 76.8885C84.7676 76.7114 84.911 76.5679 85.088 76.5679H106.018C106.194 76.5713 106.335 76.7129 106.338 76.8885C106.338 77.0656 106.195 77.2091 106.018 77.2091Z" fill="#231F20"/>
<path d="M134.497 122.559C134.32 122.559 134.177 122.415 134.177 122.238V111.189C134.177 111.012 134.32 110.869 134.497 110.869C134.674 110.869 134.818 111.012 134.818 111.189V122.238C134.818 122.415 134.674 122.559 134.497 122.559Z" fill="#231F20"/>
<rect x="131.209" y="123.758" width="13.1565" height="48.2673" fill="white"/>
<path fill-rule="evenodd" clip-rule="evenodd" d="M131.209 172.359H144.366C144.453 172.359 144.536 172.323 144.597 172.26C144.657 172.198 144.69 172.113 144.686 172.025V123.758C144.686 123.581 144.543 123.438 144.366 123.438H131.209C131.032 123.438 130.889 123.581 130.889 123.758V172.038C130.889 172.215 131.032 172.359 131.209 172.359ZM144.064 171.718H131.549L131.53 124.079H144.064V171.718Z" fill="#231F20"/>
<rect x="131.209" y="121.257" width="6.57507" height="2.5009" fill="#231F20"/>
<path fill-rule="evenodd" clip-rule="evenodd" d="M131.209 124.079H137.784C137.961 124.079 138.105 123.935 138.105 123.758V121.257C138.105 121.08 137.961 120.937 137.784 120.937H131.209C131.032 120.937 130.889 121.08 130.889 121.257V123.758C130.889 123.935 131.032 124.079 131.209 124.079ZM137.464 123.437H131.53V121.578H137.464V123.437Z" fill="#231F20"/>
<rect x="143.392" y="78.1709" width="39.4632" height="93.8542" fill="white"/>
<path fill-rule="evenodd" clip-rule="evenodd" d="M143.392 77.5298H182.855C183.209 77.5298 183.496 77.8169 183.496 78.171V172.025C183.496 172.379 183.209 172.666 182.855 172.666H143.392C143.038 172.666 142.751 172.379 142.751 172.025V78.171C142.751 77.8169 143.038 77.5298 143.392 77.5298ZM182.855 172.025V78.171H143.392V172.025H182.855Z" fill="#231F20"/>
<rect x="143.392" y="85.167" width="39.4632" height="0.641256" fill="#D1D3D4"/>
<rect x="143.392" y="92.7212" width="39.4632" height="0.641256" fill="#D1D3D4"/>
<rect x="143.392" y="100.282" width="39.4632" height="0.641256" fill="#D1D3D4"/>
<rect x="143.392" y="107.835" width="39.4632" height="0.641256" fill="#D1D3D4"/>
<rect x="143.392" y="115.396" width="39.4632" height="0.641256" fill="#D1D3D4"/>
<rect x="143.392" y="122.95" width="39.4632" height="0.641256" fill="#D1D3D4"/>
<rect x="143.392" y="130.51" width="39.4632" height="0.641256" fill="#D1D3D4"/>
<rect x="143.392" y="138.064" width="39.4632" height="0.641256" fill="#D1D3D4"/>
<rect x="143.392" y="145.618" width="39.4632" height="0.641256" fill="#D1D3D4"/>
<rect x="143.392" y="153.179" width="39.4632" height="0.641256" fill="#D1D3D4"/>
<rect x="143.392" y="160.733" width="39.4632" height="0.641256" fill="#D1D3D4"/>
<rect x="153.806" y="71.1045" width="18.6358" height="100.921" fill="white"/>
<path fill-rule="evenodd" clip-rule="evenodd" d="M153.806 172.359H172.442C172.529 172.359 172.612 172.323 172.673 172.26C172.733 172.197 172.765 172.112 172.762 172.025V71.1043C172.762 70.9272 172.619 70.7837 172.442 70.7837H153.806C153.629 70.7837 153.485 70.9272 153.485 71.1043V172.038C153.485 172.215 153.629 172.359 153.806 172.359ZM172.134 171.717H154.126V71.4249H172.134V171.717Z" fill="#231F20"/>
<path d="M172.442 81.9415H153.806C153.629 81.9415 153.485 81.798 153.485 81.6209C153.485 81.4438 153.629 81.3003 153.806 81.3003H172.442C172.619 81.3003 172.762 81.4438 172.762 81.6209C172.762 81.798 172.619 81.9415 172.442 81.9415Z" fill="#231F20"/>
<path d="M172.442 89.4699H153.806C153.629 89.4699 153.485 89.3263 153.485 89.1492C153.485 88.9722 153.629 88.8286 153.806 88.8286H172.442C172.619 88.8286 172.762 88.9722 172.762 89.1492C172.762 89.3263 172.619 89.4699 172.442 89.4699Z" fill="#231F20"/>
<path d="M172.442 97.0241H153.806C153.629 97.0241 153.485 96.8805 153.485 96.7034C153.485 96.5264 153.629 96.3828 153.806 96.3828H172.442C172.619 96.3828 172.762 96.5264 172.762 96.7034C172.762 96.8805 172.619 97.0241 172.442 97.0241Z" fill="#231F20"/>
<path d="M172.442 104.585H153.806C153.629 104.585 153.485 104.441 153.485 104.264C153.485 104.087 153.629 103.943 153.806 103.943H172.442C172.619 103.943 172.762 104.087 172.762 104.264C172.762 104.441 172.619 104.585 172.442 104.585Z" fill="#231F20"/>
<path d="M172.442 112.138H153.806C153.629 112.138 153.485 111.995 153.485 111.818C153.485 111.641 153.629 111.497 153.806 111.497H172.442C172.619 111.497 172.762 111.641 172.762 111.818C172.762 111.995 172.619 112.138 172.442 112.138Z" fill="#231F20"/>
<path d="M172.442 119.699H153.806C153.629 119.699 153.485 119.555 153.485 119.378C153.485 119.201 153.629 119.058 153.806 119.058H172.442C172.619 119.058 172.762 119.201 172.762 119.378C172.762 119.555 172.619 119.699 172.442 119.699Z" fill="#231F20"/>
<path d="M172.442 127.253H153.806C153.629 127.253 153.485 127.109 153.485 126.932C153.485 126.755 153.629 126.611 153.806 126.611H172.442C172.619 126.611 172.762 126.755 172.762 126.932C172.762 127.109 172.619 127.253 172.442 127.253Z" fill="#231F20"/>
<path d="M172.442 134.807H153.806C153.629 134.807 153.485 134.663 153.485 134.486C153.485 134.309 153.629 134.166 153.806 134.166H172.442C172.619 134.166 172.762 134.309 172.762 134.486C172.762 134.663 172.619 134.807 172.442 134.807Z" fill="#231F20"/>
<path d="M172.442 142.367H153.806C153.629 142.367 153.485 142.224 153.485 142.047C153.485 141.87 153.629 141.726 153.806 141.726H172.442C172.619 141.726 172.762 141.87 172.762 142.047C172.762 142.224 172.619 142.367 172.442 142.367Z" fill="#231F20"/>
<path d="M172.442 149.915H153.806C153.629 149.915 153.485 149.771 153.485 149.594C153.485 149.417 153.629 149.273 153.806 149.273H172.442C172.619 149.273 172.762 149.417 172.762 149.594C172.762 149.771 172.619 149.915 172.442 149.915Z" fill="#231F20"/>
<path d="M172.442 157.482H153.806C153.629 157.482 153.485 157.338 153.485 157.161C153.485 156.984 153.629 156.84 153.806 156.84H172.442C172.619 156.84 172.762 156.984 172.762 157.161C172.762 157.338 172.619 157.482 172.442 157.482Z" fill="#231F20"/>
<rect x="156.542" y="68.1099" width="13.1565" height="3.02673" fill="#231F20"/>
<path fill-rule="evenodd" clip-rule="evenodd" d="M156.542 71.4635H169.699C169.876 71.4635 170.019 71.3199 170.019 71.1428V68.1097C170.019 67.9326 169.876 67.7891 169.699 67.7891H156.542C156.367 67.7925 156.225 67.934 156.222 68.1097V71.1428C156.225 71.3185 156.367 71.46 156.542 71.4635ZM169.378 70.8222H156.882L156.863 68.4303H169.378V70.8222Z" fill="#231F20"/>
<rect x="134.605" y="130.805" width="2.42239" height="0.641256" fill="#D1D3D4"/>
<rect x="137.938" y="138.077" width="2.42239" height="0.641256" fill="#D1D3D4"/>
<rect x="134.305" y="145.349" width="2.42239" height="0.641256" fill="#D1D3D4"/>
<rect x="135.516" y="156.257" width="2.42239" height="0.641256" fill="#D1D3D4"/>
<rect x="113.112" y="164.958" width="72.4604" height="7.06664" fill="#E7816B"/>
<path fill-rule="evenodd" clip-rule="evenodd" d="M113.112 172.32H185.592C185.755 172.32 185.887 172.188 185.887 172.025V164.971C185.887 164.894 185.855 164.819 185.8 164.765C185.744 164.711 185.669 164.681 185.592 164.683H113.112C112.952 164.683 112.821 164.811 112.817 164.971V172.025C112.821 172.187 112.951 172.317 113.112 172.32ZM185.284 171.717H113.407V165.241H185.284V171.717Z" fill="#231F20"/>
<path d="M132.574 160.72C132.574 160.72 136.829 156.128 149.345 156.128C161.861 156.128 166.11 160.72 166.11 160.72H132.574Z" fill="#E7816B"/>
<path fill-rule="evenodd" clip-rule="evenodd" d="M132.574 161.015H166.11C166.226 161.015 166.331 160.947 166.379 160.842C166.424 160.734 166.404 160.609 166.328 160.521C166.148 160.329 161.842 155.84 149.345 155.84C136.849 155.84 132.536 160.329 132.363 160.521C132.281 160.607 132.258 160.733 132.305 160.842C132.356 160.945 132.459 161.012 132.574 161.015ZM165.322 160.431H133.363C134.888 159.264 139.605 156.423 149.345 156.423C159.086 156.423 163.796 159.264 165.322 160.431Z" fill="#231F20"/>
<path fill-rule="evenodd" clip-rule="evenodd" d="M135.977 165.305H162.707C162.81 165.306 162.907 165.258 162.97 165.177L166.052 160.938C166.121 160.839 166.129 160.71 166.074 160.603C166.019 160.495 165.91 160.427 165.79 160.425H132.895C132.775 160.427 132.665 160.495 132.61 160.603C132.555 160.71 132.564 160.839 132.632 160.938L135.721 165.177C135.78 165.259 135.876 165.307 135.977 165.305ZM162.521 164.664H136.144L133.523 161.066H165.136L162.521 164.664Z" fill="#231F20"/>
<path d="M141.937 165.164L138.733 161.246L135.881 165.151L135.362 164.773L138.458 160.534C138.515 160.453 138.608 160.403 138.708 160.399C138.806 160.403 138.899 160.447 138.964 160.521L142.45 164.76L141.937 165.164Z" fill="#231F20"/>
<path d="M148.903 165.164L145.699 161.246L142.847 165.151L142.328 164.773L145.423 160.534C145.481 160.453 145.574 160.403 145.673 160.399C145.772 160.402 145.865 160.446 145.93 160.521L149.416 164.76L148.903 165.164Z" fill="#231F20"/>
<path d="M155.869 165.164L152.665 161.246L149.813 165.151L149.294 164.773L152.389 160.534C152.447 160.453 152.539 160.403 152.639 160.399C152.738 160.401 152.832 160.445 152.895 160.521L156.382 164.76L155.869 165.164Z" fill="#231F20"/>
<path d="M162.836 165.164L159.631 161.246L156.754 165.151L156.241 164.773L159.33 160.534C159.389 160.453 159.481 160.404 159.58 160.399C159.679 160.402 159.772 160.446 159.836 160.521L163.323 164.76L162.836 165.164Z" fill="#231F20"/>
<path d="M121.084 172.038H120.443C120.583 169.741 120.6 167.437 120.495 165.138C120.542 165.24 120.645 165.305 120.757 165.305V164.664L121.007 164.773C121.116 164.856 121.36 165.112 121.084 172.038Z" fill="#231F20"/>
<path d="M130.594 172.038H129.953C130.096 169.741 130.113 167.437 130.004 165.138C130.054 165.241 130.159 165.306 130.274 165.305V164.664L130.517 164.773C130.62 164.856 130.87 165.112 130.594 172.038Z" fill="#231F20"/>
<path d="M140.092 172.038H139.451C139.594 169.741 139.611 167.437 139.502 165.138C139.552 165.241 139.657 165.306 139.772 165.305V164.664L140.015 164.773C140.13 164.856 140.374 165.112 140.092 172.038Z" fill="#231F20"/>
<path d="M149.602 172.038H148.961C149.104 169.741 149.121 167.437 149.012 165.138C149.062 165.241 149.167 165.306 149.281 165.305V164.664L149.525 164.773C149.634 164.856 149.877 165.112 149.602 172.038Z" fill="#231F20"/>
<path d="M159.106 172.038H158.465C158.605 169.741 158.624 167.437 158.523 165.138C158.567 165.243 158.672 165.309 158.785 165.305V164.664L159.035 164.773C159.138 164.856 159.381 165.112 159.106 172.038Z" fill="#231F20"/>
<path d="M168.61 172.038H167.969C168.112 169.741 168.131 167.437 168.026 165.138C168.071 165.243 168.176 165.309 168.289 165.305V164.664L168.539 164.773C168.642 164.856 168.885 165.112 168.61 172.038Z" fill="#231F20"/>
<path d="M178.113 172.038H177.472C177.615 169.741 177.634 167.437 177.529 165.138C177.577 165.24 177.68 165.305 177.792 165.305V164.664L178.042 164.773C178.145 164.856 178.388 165.112 178.113 172.038Z" fill="#231F20"/>
<rect x="113.112" y="166.761" width="72.4604" height="0.641256" fill="#231F20"/>
<path d="M191.359 172.628H10.6407C10.4638 172.628 10.3203 172.485 10.3203 172.307C10.3203 172.13 10.4638 171.987 10.6407 171.987H191.359C191.536 171.987 191.679 172.13 191.679 172.307C191.679 172.485 191.536 172.628 191.359 172.628Z" fill="#231F20"/>
<defs>
<linearGradient id="paint0_linear_0_6489" x1="0" y1="202" x2="202" y2="202" gradientUnits="userSpaceOnUse">
<stop stop-color="#5D0202" stop-opacity="0.01"/>
<stop offset="1" stop-color="#5D0202" stop-opacity="0.497569"/>
</linearGradient>
</defs>
</svg>
