<svg width="202" height="202" viewBox="0 0 202 202" fill="none" xmlns="http://www.w3.org/2000/svg">
<circle opacity="0.202683" r="101" transform="matrix(0 1 1 0 101 101)" fill="url(#paint0_linear_0_6757)"/>
<path d="M64.2012 90.9337L68.9013 86.103L64.2012 90.9337Z" fill="white"/>
<path d="M64.2009 91.2037C64.131 91.2042 64.0638 91.1768 64.0141 91.1274C63.9094 91.022 63.9094 90.8513 64.0141 90.7459L68.685 85.9152C68.7894 85.8149 68.954 85.8154 69.0576 85.9165C69.1613 86.0176 69.1669 86.1829 69.0704 86.2909L64.3702 91.1215C64.3252 91.1681 64.2652 91.1972 64.2009 91.2037Z" fill="#231F20"/>
<path d="M68.9013 90.9337L64.2012 86.103L68.9013 90.9337Z" fill="white"/>
<path d="M68.9006 91.2038C68.8281 91.2031 68.7589 91.1736 68.708 91.1217L64.037 86.291C63.9871 86.2414 63.959 86.1737 63.959 86.1032C63.959 86.0326 63.9871 85.965 64.037 85.9153C64.1418 85.8101 64.3117 85.8101 64.4165 85.9153L69.1167 90.746C69.2183 90.8527 69.2183 91.0208 69.1167 91.1275C69.0601 91.1848 68.9805 91.2129 68.9006 91.2038Z" fill="#231F20"/>
<path d="M68.9014 90.9337L73.6015 86.103L68.9014 90.9337Z" fill="white"/>
<path d="M68.9007 91.2038C68.8307 91.205 68.7632 91.1775 68.7139 91.1275C68.6123 91.0208 68.6123 90.8527 68.7139 90.746L73.3848 85.9153C73.4342 85.8652 73.5015 85.8369 73.5717 85.8369C73.6419 85.8369 73.7092 85.8652 73.7585 85.9153C73.81 85.9641 73.8391 86.0321 73.8391 86.1032C73.8391 86.1743 73.81 86.2422 73.7585 86.291L69.0876 91.1216C69.0381 91.1721 68.9712 91.2016 68.9007 91.2038Z" fill="#231F20"/>
<path d="M73.6015 90.9337L68.9014 86.103L73.6015 90.9337Z" fill="white"/>
<path d="M73.6015 91.2037C73.529 91.203 73.4597 91.1734 73.4088 91.1215L68.7378 86.2909C68.6413 86.1829 68.6469 86.0176 68.7506 85.9165C68.8542 85.8154 69.0188 85.8149 69.1232 85.9152L73.7941 90.7459C73.8459 90.7957 73.8751 90.8646 73.8751 90.9366C73.8751 91.0087 73.8459 91.0776 73.7941 91.1274C73.7443 91.1802 73.6737 91.2081 73.6015 91.2037Z" fill="#231F20"/>
<path d="M73.6006 90.9337L78.2949 86.103L73.6006 90.9337Z" fill="white"/>
<path d="M73.6013 91.2036C73.531 91.2062 73.463 91.1784 73.4144 91.1273C73.3098 91.0218 73.3098 90.8511 73.4144 90.7457L78.1146 85.9151C78.2209 85.8317 78.3722 85.8404 78.4683 85.9355C78.5644 86.0306 78.5754 86.1826 78.4941 86.2907L73.794 91.1214C73.7431 91.1733 73.6738 91.2028 73.6013 91.2036Z" fill="#231F20"/>
<path d="M78.2949 90.9337L73.6006 86.103L78.2949 90.9337Z" fill="white"/>
<path d="M78.3124 91.2036C78.2414 91.204 78.1735 91.1741 78.1256 91.1214L73.4254 86.2907C73.3441 86.1826 73.3552 86.0306 73.4512 85.9355C73.5473 85.8404 73.6987 85.8317 73.8049 85.9151L78.5051 90.7457C78.6098 90.8511 78.6098 91.0218 78.5051 91.1273C78.4544 91.1787 78.3845 91.2064 78.3124 91.2036Z" fill="#231F20"/>
<path d="M78.2949 90.9337L82.9951 86.103L78.2949 90.9337Z" fill="white"/>
<path d="M78.3132 91.2037C78.2433 91.2042 78.1761 91.1768 78.1264 91.1274C78.0217 91.022 78.0217 90.8513 78.1264 90.7459L82.7973 85.9152C82.9017 85.8149 83.0663 85.8154 83.1699 85.9165C83.2736 86.0176 83.2792 86.1829 83.1827 86.2909L78.5117 91.1215C78.4594 91.1749 78.3877 91.2045 78.3132 91.2037Z" fill="#231F20"/>
<path d="M82.9951 90.9337L78.2949 86.103L82.9951 90.9337Z" fill="white"/>
<path d="M82.9837 91.2038C82.9111 91.2031 82.8419 91.1736 82.791 91.1217L78.12 86.291C78.0701 86.2414 78.042 86.1737 78.042 86.1032C78.042 86.0326 78.0701 85.965 78.12 85.9153C78.2249 85.8101 78.3947 85.8101 78.4995 85.9153L83.1705 90.746C83.2721 90.8527 83.2721 91.0208 83.1705 91.1275C83.1208 91.1769 83.0535 91.2044 82.9837 91.2038Z" fill="#231F20"/>
<path d="M82.9951 90.9337L87.6953 86.103L82.9951 90.9337Z" fill="white"/>
<path d="M82.9837 91.2038C82.9137 91.2051 82.8462 91.1775 82.7969 91.1275C82.6953 91.0208 82.6953 90.8527 82.7969 90.746L87.497 85.9153C87.6019 85.8101 87.7717 85.8101 87.8766 85.9153C87.9265 85.965 87.9546 86.0326 87.9546 86.1032C87.9546 86.1737 87.9265 86.2414 87.8766 86.291L83.2056 91.1217C83.1478 91.1813 83.0662 91.2115 82.9837 91.2038Z" fill="#231F20"/>
<path d="M87.6953 90.9337L82.9951 86.103L87.6953 90.9337Z" fill="white"/>
<path d="M87.6961 91.2037C87.6236 91.203 87.5543 91.1734 87.5034 91.1215L82.8032 86.2909C82.7067 86.1829 82.7123 86.0176 82.816 85.9165C82.9196 85.8154 83.0842 85.8149 83.1886 85.9152L87.8596 90.7459C87.9642 90.8513 87.9642 91.022 87.8596 91.1274C87.8157 91.1714 87.7578 91.1984 87.6961 91.2037Z" fill="#231F20"/>
<path d="M87.6953 90.9337L92.3896 86.103L87.6953 90.9337Z" fill="white"/>
<path d="M87.696 91.2036C87.626 91.2048 87.5585 91.1772 87.5092 91.1273C87.4045 91.0218 87.4045 90.8511 87.5092 90.7457L92.1801 85.9151C92.2864 85.8317 92.4378 85.8404 92.5338 85.9355C92.6299 86.0306 92.641 86.1826 92.5597 86.2907L87.8595 91.1214C87.8159 91.1667 87.7582 91.1958 87.696 91.2036Z" fill="#231F20"/>
<path d="M92.3896 90.9337L87.6953 86.103L92.3896 90.9337Z" fill="white"/>
<path d="M92.3897 91.2036C92.3189 91.2026 92.2516 91.1729 92.2028 91.1214L87.5319 86.2907C87.4506 86.1826 87.4616 86.0306 87.5577 85.9355C87.6538 85.8404 87.8051 85.8317 87.9114 85.9151L92.6115 90.7457C92.7162 90.8511 92.7162 91.0218 92.6115 91.1273C92.5541 91.1871 92.4715 91.2155 92.3897 91.2036Z" fill="#231F20"/>
<path d="M92.3896 90.9337L97.0898 86.103L92.3896 90.9337Z" fill="white"/>
<path d="M92.3903 91.2037C92.3205 91.2042 92.2532 91.1768 92.2035 91.1274C92.0988 91.022 92.0988 90.8513 92.2035 90.7459L96.8745 85.9152C96.9788 85.8149 97.1434 85.8154 97.2471 85.9165C97.3507 86.0176 97.3564 86.1829 97.2598 86.2909L92.5597 91.1215C92.5146 91.1681 92.4547 91.1972 92.3903 91.2037Z" fill="#231F20"/>
<path d="M97.0898 90.9337L92.3896 86.103L97.0898 90.9337Z" fill="white"/>
<path d="M97.0901 91.2038C97.0176 91.2031 96.9483 91.1736 96.8974 91.1217L92.2265 86.291C92.1765 86.2414 92.1484 86.1737 92.1484 86.1032C92.1484 86.0326 92.1765 85.965 92.2265 85.9153C92.3313 85.8101 92.5011 85.8101 92.606 85.9153L97.3061 90.746C97.4077 90.8527 97.4077 91.0208 97.3061 91.1275C97.2495 91.1848 97.1699 91.2129 97.0901 91.2038Z" fill="#231F20"/>
<path d="M103.811 90.9337L108.511 86.103L103.811 90.9337Z" fill="white"/>
<path d="M103.81 91.2037C103.74 91.2042 103.673 91.1768 103.623 91.1274C103.519 91.022 103.519 90.8513 103.623 90.7459L108.294 85.9152C108.399 85.8149 108.563 85.8154 108.667 85.9165C108.771 86.0176 108.776 86.1829 108.68 86.2909L104.003 91.1215C103.952 91.1734 103.883 91.203 103.81 91.2037Z" fill="#231F20"/>
<path d="M108.511 90.9337L103.811 86.103L108.511 90.9337Z" fill="white"/>
<path d="M108.511 91.2038C108.438 91.2031 108.369 91.1736 108.318 91.1217L103.647 86.291C103.597 86.2414 103.569 86.1737 103.569 86.1032C103.569 86.0326 103.597 85.965 103.647 85.9153C103.752 85.8101 103.922 85.8101 104.027 85.9153L108.727 90.746C108.829 90.8527 108.829 91.0208 108.727 91.1275C108.671 91.1856 108.591 91.2138 108.511 91.2038Z" fill="#231F20"/>
<path d="M108.511 90.9337L113.211 86.103L108.511 90.9337Z" fill="white"/>
<path d="M108.511 91.2038C108.441 91.2044 108.374 91.1769 108.324 91.1275C108.223 91.0208 108.223 90.8527 108.324 90.746L113.024 85.9153C113.129 85.8101 113.299 85.8101 113.404 85.9153C113.454 85.965 113.482 86.0326 113.482 86.1032C113.482 86.1737 113.454 86.2414 113.404 86.291L108.733 91.1217C108.675 91.1813 108.594 91.2115 108.511 91.2038Z" fill="#231F20"/>
<path d="M113.211 90.9337L108.511 86.103L113.211 90.9337Z" fill="white"/>
<path d="M113.211 91.2037C113.138 91.203 113.069 91.1734 113.018 91.1215L108.318 86.2909C108.221 86.1829 108.227 86.0176 108.331 85.9165C108.434 85.8154 108.599 85.8149 108.703 85.9152L113.374 90.7459C113.479 90.8513 113.479 91.022 113.374 91.1274C113.33 91.1714 113.272 91.1984 113.211 91.2037Z" fill="#231F20"/>
<path d="M113.211 90.9337L117.905 86.103L113.211 90.9337Z" fill="white"/>
<path d="M113.211 91.2036C113.141 91.2048 113.074 91.1772 113.024 91.1273C112.923 91.0206 112.923 90.8524 113.024 90.7457L117.725 85.9151C117.831 85.8317 117.982 85.8404 118.078 85.9355C118.174 86.0306 118.185 86.1826 118.104 86.2907L113.433 91.1214C113.377 91.1843 113.294 91.2151 113.211 91.2036Z" fill="#231F20"/>
<path d="M117.905 90.9337L113.211 86.103L117.905 90.9337Z" fill="white"/>
<path d="M117.905 91.2038C117.835 91.2016 117.768 91.1721 117.718 91.1216L113.018 86.291C112.917 86.1863 112.917 86.02 113.018 85.9153C113.067 85.8652 113.135 85.8369 113.205 85.8369C113.275 85.8369 113.342 85.8652 113.392 85.9153L118.063 90.746C118.167 90.8514 118.167 91.0221 118.063 91.1275C118.021 91.1716 117.965 91.1987 117.905 91.2038Z" fill="#231F20"/>
<path d="M117.905 90.9337L122.605 86.103L117.905 90.9337Z" fill="white"/>
<path d="M117.906 91.2038C117.837 91.2048 117.772 91.1772 117.725 91.1275C117.673 91.0777 117.644 91.0088 117.644 90.9368C117.644 90.8647 117.673 90.7958 117.725 90.746L122.396 85.9153C122.445 85.8652 122.512 85.8369 122.582 85.8369C122.653 85.8369 122.72 85.8652 122.769 85.9153C122.87 86.02 122.87 86.1863 122.769 86.291L118.069 91.1216C118.025 91.167 117.968 91.196 117.906 91.2038Z" fill="#231F20"/>
<path d="M122.605 90.9337L117.905 86.103L122.605 90.9337Z" fill="white"/>
<path d="M122.605 91.2038C122.534 91.2042 122.466 91.1744 122.419 91.1216L117.748 86.291C117.696 86.2422 117.667 86.1743 117.667 86.1032C117.667 86.0321 117.696 85.9641 117.748 85.9153C117.797 85.8652 117.864 85.8369 117.934 85.8369C118.005 85.8369 118.072 85.8652 118.121 85.9153L122.821 90.746C122.923 90.8527 122.923 91.0208 122.821 91.1275C122.765 91.1856 122.685 91.2138 122.605 91.2038Z" fill="#231F20"/>
<path d="M122.605 90.9337L127.306 86.103L122.605 90.9337Z" fill="white"/>
<path d="M122.605 91.2037C122.535 91.2042 122.468 91.1768 122.418 91.1274C122.314 91.022 122.314 90.8513 122.418 90.7459L127.089 85.9152C127.194 85.8149 127.358 85.8154 127.462 85.9165C127.566 86.0176 127.571 86.1829 127.475 86.2909L122.775 91.1215C122.729 91.1681 122.669 91.1972 122.605 91.2037Z" fill="#231F20"/>
<path d="M127.306 90.9337L122.605 86.103L127.306 90.9337Z" fill="white"/>
<path d="M127.306 91.2038C127.233 91.2031 127.164 91.1736 127.113 91.1217L122.442 86.291C122.392 86.2414 122.364 86.1737 122.364 86.1032C122.364 86.0326 122.392 85.965 122.442 85.9153C122.547 85.8101 122.717 85.8101 122.822 85.9153L127.522 90.746C127.624 90.8527 127.624 91.0208 127.522 91.1275C127.465 91.1848 127.386 91.2129 127.306 91.2038Z" fill="#231F20"/>
<path d="M127.306 90.9337L132.006 86.103L127.306 90.9337Z" fill="white"/>
<path d="M127.306 91.2038C127.236 91.205 127.168 91.1775 127.119 91.1275C127.018 91.0208 127.018 90.8527 127.119 90.746L131.79 85.9153C131.839 85.8652 131.907 85.8369 131.977 85.8369C132.047 85.8369 132.114 85.8652 132.164 85.9153C132.215 85.9641 132.244 86.0321 132.244 86.1032C132.244 86.1743 132.215 86.2422 132.164 86.291L127.493 91.1216C127.443 91.1721 127.376 91.2016 127.306 91.2038Z" fill="#231F20"/>
<path d="M132.006 90.9337L127.306 86.103L132.006 90.9337Z" fill="white"/>
<path d="M132.029 91.2037C131.957 91.203 131.887 91.1734 131.837 91.1215L127.166 86.2909C127.069 86.1829 127.075 86.0176 127.178 85.9165C127.282 85.8154 127.447 85.8149 127.551 85.9152L132.222 90.7459C132.274 90.7957 132.303 90.8646 132.303 90.9366C132.303 91.0087 132.274 91.0776 132.222 91.1274C132.172 91.1802 132.101 91.2081 132.029 91.2037Z" fill="#231F20"/>
<path d="M132.006 90.9337L136.7 86.103L132.006 90.9337Z" fill="white"/>
<path d="M132.029 91.2038C131.959 91.205 131.892 91.1775 131.842 91.1275C131.738 91.0221 131.738 90.8514 131.842 90.746L136.542 85.9153C136.592 85.8652 136.659 85.8369 136.729 85.8369C136.799 85.8369 136.867 85.8652 136.916 85.9153C137.017 86.02 137.017 86.1863 136.916 86.291L132.245 91.1216C132.189 91.1797 132.11 91.2097 132.029 91.2038Z" fill="#231F20"/>
<path d="M136.7 90.9337L132.006 86.103L136.7 90.9337Z" fill="white"/>
<path d="M136.7 91.2036C136.629 91.204 136.561 91.1741 136.513 91.1214L131.813 86.2907C131.732 86.1826 131.743 86.0306 131.839 85.9355C131.935 85.8404 132.086 85.8317 132.193 85.9151L136.864 90.7457C136.965 90.8524 136.965 91.0206 136.864 91.1273C136.82 91.1717 136.762 91.1988 136.7 91.2036Z" fill="#231F20"/>
<path d="M142.113 86.185H58.8877C58.817 86.1866 58.7487 86.1595 58.6981 86.1098C58.6476 86.0601 58.6191 85.992 58.6191 85.9209C58.6191 85.7718 58.7394 85.6509 58.8877 85.6509H142.113C142.261 85.6509 142.381 85.7718 142.381 85.9209C142.381 85.992 142.353 86.0601 142.302 86.1098C142.252 86.1595 142.183 86.1866 142.113 86.185Z" fill="#231F20"/>
<rect x="62.2744" y="132.121" width="76.4462" height="2.67065" fill="white"/>
<path fill-rule="evenodd" clip-rule="evenodd" d="M62.2735 135.044H138.726C138.868 135.044 138.985 134.929 138.988 134.785V132.109C138.988 131.963 138.871 131.845 138.726 131.845H62.2735C62.1284 131.845 62.0107 131.963 62.0107 132.109V134.78C62.0107 134.925 62.1284 135.044 62.2735 135.044ZM138.451 134.527H62.5479V132.391H138.451V134.527Z" fill="#231F20"/>
<path d="M138.726 134.797V150.645H129.571C129.571 150.645 123.318 136.44 100.5 136.44C77.6828 136.44 71.4295 150.645 71.4295 150.645H62.2744V134.797H138.726Z" fill="white"/>
<path fill-rule="evenodd" clip-rule="evenodd" d="M129.571 150.891H138.727C138.875 150.891 138.995 150.77 138.995 150.621V134.773C138.995 134.702 138.967 134.633 138.916 134.582C138.866 134.532 138.798 134.503 138.727 134.503H62.2744C62.2032 134.503 62.1349 134.532 62.0845 134.582C62.0342 134.633 62.0059 134.702 62.0059 134.773V150.621C62.0059 150.693 62.0342 150.762 62.0845 150.812C62.1349 150.863 62.2032 150.891 62.2744 150.891H71.4295C71.5343 150.889 71.6289 150.828 71.6748 150.733C71.7331 150.592 78.1382 136.681 100.5 136.681C122.863 136.681 129.268 150.592 129.326 150.733C129.372 150.828 129.467 150.889 129.571 150.891ZM138.452 150.357H129.741V150.381C128.947 148.802 121.923 136.153 100.506 136.153C79.0899 136.153 72.0601 148.784 71.2661 150.363H62.5489V135.043H138.452V150.357Z" fill="#231F20"/>
<rect x="59.3486" y="90.9336" width="82.3025" height="2.44761" fill="#231F20"/>
<path fill-rule="evenodd" clip-rule="evenodd" d="M59.3251 93.6747H141.651C141.73 93.6748 141.807 93.6422 141.862 93.5846C141.917 93.527 141.946 93.4493 141.943 93.3695V90.9336C141.943 90.7715 141.812 90.6401 141.651 90.6401H59.3251C59.1639 90.6401 59.0332 90.7715 59.0332 90.9336V93.3812C59.0332 93.5433 59.1639 93.6747 59.3251 93.6747ZM141.371 93.0877H59.6404L59.6288 91.2271H141.371V93.0877Z" fill="#231F20"/>
<path d="M97.1895 84.9351L100.5 82.6401L103.811 84.9351V90.9338H97.1895V84.9351Z" fill="#E7816B"/>
<path fill-rule="evenodd" clip-rule="evenodd" d="M96.9209 90.9336C96.9209 91.0827 97.0411 91.2036 97.1895 91.2036H103.811C103.959 91.2036 104.079 91.0827 104.079 90.9336V84.9349C104.079 84.8457 104.036 84.7623 103.962 84.7119L100.652 82.4169C100.559 82.3584 100.441 82.3584 100.348 82.4169L97.0377 84.7119C96.9645 84.7623 96.9208 84.8457 96.9209 84.9349V90.9336ZM103.548 85.0758V90.6695H97.4522V85.0758L100.5 82.9627L103.548 85.0758Z" fill="#231F20"/>
<path d="M97.1894 89.6307C97.1187 89.6323 97.0504 89.6051 96.9998 89.5554C96.9493 89.5057 96.9208 89.4376 96.9208 89.3666V83.3327C96.9053 83.2278 96.9523 83.1235 97.0409 83.066C97.1295 83.0086 97.2434 83.0086 97.332 83.066C97.4207 83.1235 97.4676 83.2278 97.4521 83.3327V89.3666C97.4521 89.5124 97.3345 89.6307 97.1894 89.6307Z" fill="#231F20"/>
<path d="M103.811 89.6307C103.665 89.6307 103.548 89.5124 103.548 89.3666V83.3327C103.532 83.2278 103.579 83.1235 103.668 83.066C103.756 83.0086 103.87 83.0086 103.959 83.066C104.048 83.1235 104.095 83.2278 104.079 83.3327V89.3666C104.079 89.4376 104.051 89.5057 104 89.5554C103.95 89.6051 103.881 89.6323 103.811 89.6307Z" fill="#231F20"/>
<path d="M100.5 82.9101C100.353 82.907 100.234 82.7879 100.231 82.6401V80.9731C100.231 80.824 100.352 80.7031 100.5 80.7031C100.648 80.7031 100.769 80.824 100.769 80.9731V82.6401C100.765 82.7879 100.647 82.907 100.5 82.9101Z" fill="#231F20"/>
<path d="M10.3212 132.109V116.431C29.0051 113.302 47.689 90.3936 47.689 90.3936L46.6614 94.9073C46.6614 94.9073 27.633 116.525 10.3096 118.538" fill="#231F20"/>
<path fill-rule="evenodd" clip-rule="evenodd" d="M10.0293 132.12C10.0293 132.282 10.16 132.414 10.3212 132.414C10.4007 132.414 10.4768 132.381 10.5319 132.324C10.587 132.266 10.6163 132.188 10.6132 132.109V118.802C27.7848 116.619 46.7022 95.324 46.8891 95.1068C46.9247 95.0717 46.9491 95.0268 46.9591 94.9777L47.9809 90.464C48.0075 90.3328 47.9459 90.1996 47.8291 90.1353C47.7057 90.0777 47.559 90.1115 47.4729 90.2175C47.4711 90.2197 47.4676 90.224 47.4623 90.2303C46.923 90.8793 28.4585 113.103 10.2745 116.143C10.133 116.169 10.0299 116.292 10.0293 116.437V118.538V132.12ZM10.6132 118.204V116.677C26.9791 113.79 43.4326 95.776 47.1518 91.4912L46.4045 94.7664C45.3243 95.9755 27.1192 116.055 10.6132 118.204Z" fill="#231F20"/>
<path d="M15.9733 132.39C15.9026 132.39 15.8349 132.362 15.7854 132.311C15.736 132.26 15.709 132.191 15.7106 132.12V117.247C15.7302 117.115 15.8432 117.017 15.9762 117.017C16.1093 117.017 16.2223 117.115 16.2419 117.247V132.109C16.2469 132.183 16.2206 132.255 16.1694 132.309C16.1183 132.363 16.0472 132.392 15.9733 132.39Z" fill="#231F20"/>
<path d="M22.0163 132.39C21.9446 132.392 21.8753 132.364 21.8246 132.313C21.7739 132.262 21.7461 132.193 21.7477 132.12V114.682C21.7673 114.55 21.8803 114.452 22.0134 114.452C22.1464 114.452 22.2594 114.55 22.279 114.682V132.109C22.2839 132.182 22.2583 132.254 22.2085 132.307C22.1587 132.36 22.0891 132.391 22.0163 132.39Z" fill="#231F20"/>
<path d="M28.3279 132.391C28.2567 132.391 28.1884 132.362 28.138 132.312C28.0877 132.261 28.0594 132.192 28.0594 132.121V110.978C28.0594 110.829 28.1796 110.708 28.3279 110.708C28.4763 110.708 28.5965 110.829 28.5965 110.978V132.109C28.5997 132.183 28.5728 132.254 28.5221 132.307C28.4714 132.361 28.4012 132.391 28.3279 132.391Z" fill="#231F20"/>
<path d="M34.6393 132.39C34.5686 132.39 34.5009 132.362 34.4515 132.311C34.402 132.26 34.375 132.191 34.3766 132.12V106.283C34.3962 106.15 34.5092 106.052 34.6423 106.052C34.7753 106.052 34.8884 106.15 34.9079 106.283V132.109C34.9129 132.183 34.8866 132.255 34.8355 132.309C34.7844 132.363 34.7132 132.392 34.6393 132.39Z" fill="#231F20"/>
<path d="M54.7773 53.2865C54.6312 53.2866 54.5119 53.1692 54.5087 53.0224V47.6929C54.5087 47.5437 54.629 47.4229 54.7773 47.4229C54.9256 47.4229 55.0459 47.5437 55.0459 47.6929V53.0224C55.0427 53.1692 54.9234 53.2866 54.7773 53.2865Z" fill="#231F20"/>
<path d="M54.0298 54.4307H55.5245L62.0055 81.2194H47.5488L54.0298 54.4307Z" fill="#231F20"/>
<path fill-rule="evenodd" clip-rule="evenodd" d="M47.5542 81.507H62.0051C62.0978 81.5093 62.1863 81.4681 62.2444 81.3955C62.2988 81.3258 62.3181 81.2349 62.297 81.1489L55.8219 54.3661C55.7942 54.2327 55.6772 54.1371 55.5416 54.1372H54.0294C53.8931 54.1387 53.7753 54.233 53.7433 54.3661L47.2681 81.1489C47.247 81.2349 47.2664 81.3258 47.3207 81.3955C47.3776 81.4665 47.4636 81.5075 47.5542 81.507ZM61.6314 80.92H47.9221L54.2571 54.7242H55.2964L61.6314 80.92Z" fill="#231F20"/>
<rect x="54.0352" y="52.4233" width="1.48887" height="2.00739" fill="#231F20"/>
<path fill-rule="evenodd" clip-rule="evenodd" d="M54.0585 54.7242H55.5416C55.7028 54.7242 55.8335 54.5928 55.8335 54.4308V52.4234C55.8335 52.2613 55.7028 52.1299 55.5416 52.1299H54.0585C53.8973 52.1299 53.7666 52.2613 53.7666 52.4234V54.4308C53.7666 54.5928 53.8973 54.7242 54.0585 54.7242ZM55.273 54.1373H54.3738V52.7168H55.273V54.1373Z" fill="#231F20"/>
<path d="M57.9356 80.3391V73.9941L54.7769 68.6528L51.6182 73.9941V80.3391H48.582V131.117H60.9718V80.3391H57.9356Z" fill="#E7816B"/>
<path fill-rule="evenodd" clip-rule="evenodd" d="M48.5879 131.387H60.9718C61.1156 131.384 61.2315 131.267 61.2346 131.123V80.3451C61.2346 80.1992 61.1169 80.0809 60.9718 80.0809H58.1984V74.0001C58.1987 73.9528 58.1866 73.9062 58.1634 73.8651L55.0047 68.5238C54.9537 68.4476 54.8683 68.4019 54.7769 68.4019C54.6856 68.4019 54.6002 68.4476 54.5492 68.5238L51.3905 73.8651C51.3673 73.9062 51.3552 73.9528 51.3555 74.0001V80.0751H48.5879C48.5172 80.0735 48.4489 80.1006 48.3983 80.1503C48.3478 80.2 48.3193 80.2681 48.3193 80.3392V131.117C48.3193 131.266 48.4396 131.387 48.5879 131.387ZM60.7032 130.847H48.8507L48.7923 80.6092H51.5598C51.7082 80.6092 51.8284 80.4883 51.8284 80.3392V74.0646L54.7478 69.1753L57.6671 74.0646V80.3392C57.6702 80.487 57.7887 80.6061 57.9357 80.6092H60.7032V130.847Z" fill="#231F20"/>
<path d="M60.9722 85.2578H48.5883C48.484 85.2734 48.3803 85.2262 48.3231 85.1371C48.266 85.048 48.266 84.9335 48.3231 84.8444C48.3803 84.7553 48.484 84.7081 48.5883 84.7237H60.9722C61.1039 84.7434 61.2013 84.857 61.2013 84.9907C61.2013 85.1245 61.1039 85.2381 60.9722 85.2578Z" fill="#231F20"/>
<path d="M52.5878 94.9369H50.6318V88.5743C50.6318 88.0284 51.6127 87.1479 51.6127 87.1479C51.6127 87.1479 52.5878 88.0284 52.5878 88.5743V94.9369Z" fill="#231F20"/>
<path d="M55.7577 94.9369H53.79V88.5743C53.79 88.0284 54.7709 87.1479 54.7709 87.1479C54.7709 87.1479 55.7518 88.0284 55.7518 88.5743L55.7577 94.9369Z" fill="#231F20"/>
<path d="M58.9228 94.9369H56.9668V88.5743C56.9668 88.0284 57.9419 87.1479 57.9419 87.1479C57.9419 87.1479 58.9228 88.0284 58.9228 88.5743V94.9369Z" fill="#231F20"/>
<path d="M52.5878 106.87H50.6318V100.478C50.6318 99.9376 51.6127 99.0513 51.6127 99.0513C51.6127 99.0513 52.5878 99.9376 52.5878 100.478V106.87Z" fill="#231F20"/>
<path d="M55.7577 106.87H53.79V100.478C53.79 99.9376 54.7709 99.0513 54.7709 99.0513C54.7709 99.0513 55.7518 99.9376 55.7518 100.478L55.7577 106.87Z" fill="#231F20"/>
<path d="M58.9228 106.87H56.9668V100.478C56.9668 99.9376 57.9419 99.0513 57.9419 99.0513C57.9419 99.0513 58.9228 99.9376 58.9228 100.478V106.87Z" fill="#231F20"/>
<path d="M52.5878 118.755H50.6318V112.387C50.6318 111.841 51.6127 110.96 51.6127 110.96C51.6127 110.96 52.5878 111.841 52.5878 112.387V118.755Z" fill="#231F20"/>
<path d="M55.7577 118.755H53.79V112.387C53.79 111.841 54.7709 110.96 54.7709 110.96C54.7709 110.96 55.7518 111.841 55.7518 112.387L55.7577 118.755Z" fill="#231F20"/>
<path d="M58.9228 118.755H56.9668V112.387C56.9668 111.841 57.9419 110.96 57.9419 110.96C57.9419 110.96 58.9228 111.841 58.9228 112.387V118.755Z" fill="#231F20"/>
<path d="M60.5287 122.271H49.0264C48.8803 122.272 48.761 122.154 48.7578 122.007C48.7609 121.86 48.8794 121.74 49.0264 121.737H60.5287C60.6757 121.74 60.7941 121.86 60.7972 122.007C60.7941 122.154 60.6747 122.272 60.5287 122.271Z" fill="#231F20"/>
<path d="M46.5267 60.6113L49.481 71.922H43.5723L46.5267 60.6113Z" fill="#231F20"/>
<path fill-rule="evenodd" clip-rule="evenodd" d="M43.573 72.2392H49.4817C49.5674 72.2339 49.6464 72.191 49.6978 72.1218C49.7548 72.0512 49.7744 71.9572 49.7503 71.8694L46.7959 60.5588C46.7587 60.4277 46.6396 60.3374 46.504 60.3374C46.3684 60.3374 46.2493 60.4277 46.2121 60.5588L43.2927 71.8694C43.2689 71.9563 43.2861 72.0494 43.3394 72.1218C43.3957 72.1943 43.4815 72.2375 43.573 72.2392ZM49.1197 71.6523H43.9525L46.5449 61.7855L49.1197 71.6523Z" fill="#231F20"/>
<path d="M44.6348 71.9224L44.7574 90.7754L45.8842 93.7924V131.117H49.5101V93.4108L48.6284 91.4328V71.9224H44.6348Z" fill="#E7816B"/>
<path fill-rule="evenodd" clip-rule="evenodd" d="M45.8843 131.387H49.5102C49.6549 131.381 49.77 131.263 49.7729 131.117V93.4108C49.7789 93.3759 49.7789 93.3401 49.7729 93.3052L48.9146 91.3741V71.9223C48.9146 71.7732 48.7944 71.6523 48.646 71.6523H44.6524C44.5826 71.6524 44.5156 71.6798 44.4655 71.7286C44.4139 71.7798 44.3845 71.8495 44.3838 71.9223L44.5122 90.7754C44.5067 90.8064 44.5067 90.8382 44.5122 90.8693L45.6158 93.8393V131.117C45.6189 131.265 45.7373 131.384 45.8843 131.387ZM49.2416 130.847H46.1529L46.1588 93.7865C46.1638 93.7554 46.1638 93.7237 46.1588 93.6926L45.0494 90.7226L44.9268 72.1865H48.3833V91.4328C48.3779 91.4698 48.3779 91.5073 48.3833 91.5443L49.2416 93.4695V130.847Z" fill="#231F20"/>
<path d="M48.6292 84.4419H44.7173C44.6129 84.4575 44.5092 84.4103 44.452 84.3212C44.3949 84.2321 44.3949 84.1176 44.452 84.0285C44.5092 83.9394 44.6129 83.8922 44.7173 83.9078H48.6292C48.7335 83.8922 48.8372 83.9394 48.8944 84.0285C48.9516 84.1176 48.9516 84.2321 48.8944 84.3212C48.8372 84.4103 48.7335 84.4575 48.6292 84.4419Z" fill="#231F20"/>
<path d="M49.5101 94.0561H45.8842C45.7799 94.0717 45.6762 94.0245 45.619 93.9354C45.5619 93.8463 45.5619 93.7318 45.619 93.6427C45.6762 93.5537 45.7799 93.5064 45.8842 93.522H49.5101C49.6144 93.5064 49.7181 93.5537 49.7753 93.6427C49.8324 93.7318 49.8324 93.8463 49.7753 93.9354C49.7181 94.0245 49.6144 94.0717 49.5101 94.0561Z" fill="#231F20"/>
<path d="M63.0276 60.6113L60.0732 71.922H65.982L63.0276 60.6113Z" fill="#231F20"/>
<path fill-rule="evenodd" clip-rule="evenodd" d="M59.8449 72.1218C59.8987 72.1941 59.9827 72.2374 60.0726 72.2392H65.9813C66.0789 72.243 66.1724 72.1993 66.2324 72.1218C66.2869 72.05 66.3062 71.9572 66.285 71.8694L63.3306 60.5588C63.2933 60.4277 63.1742 60.3374 63.0386 60.3374C62.9031 60.3374 62.7839 60.4277 62.7467 60.5588L59.7923 71.8694C59.7683 71.9572 59.7878 72.0512 59.8449 72.1218ZM63.027 61.7855L65.6018 71.6523H60.4521L63.027 61.7855Z" fill="#231F20"/>
<path d="M64.9193 71.9224L64.7967 90.7754L63.6698 93.7924V131.117H60.0439V93.4108L60.9256 91.4328V71.9224H64.9193Z" fill="#E7816B"/>
<path fill-rule="evenodd" clip-rule="evenodd" d="M60.0436 131.387H63.6694C63.8119 131.378 63.9236 131.26 63.9263 131.117V93.8393L65.0357 90.8693C65.0385 90.8381 65.0385 90.8067 65.0357 90.7754L65.1641 71.9224C65.1675 71.8498 65.1403 71.7791 65.0892 71.7277C65.038 71.6764 64.9678 71.649 64.8956 71.6524H60.9019C60.7535 71.6524 60.6333 71.7733 60.6333 71.9224V91.3741L59.775 93.3052C59.769 93.3402 59.769 93.3759 59.775 93.4109V131.117C59.7781 131.265 59.8966 131.384 60.0436 131.387ZM63.4008 130.847H60.3122L60.318 93.4695L61.1763 91.5443C61.1846 91.5076 61.1846 91.4695 61.1763 91.4328V72.1865H64.6328L64.5102 90.7226L63.4008 93.6926C63.3958 93.7237 63.3958 93.7554 63.4008 93.7865V130.847Z" fill="#231F20"/>
<path d="M64.8372 84.4419H60.9253C60.8209 84.4575 60.7172 84.4103 60.6601 84.3212C60.6029 84.2321 60.6029 84.1176 60.6601 84.0285C60.7172 83.9394 60.8209 83.8922 60.9253 83.9078H64.8372C64.9415 83.8922 65.0452 83.9394 65.1024 84.0285C65.1596 84.1176 65.1596 84.2321 65.1024 84.3212C65.0452 84.4103 64.9415 84.4575 64.8372 84.4419Z" fill="#231F20"/>
<path d="M63.6693 94.0561H60.0434C59.9391 94.0717 59.8354 94.0245 59.7782 93.9354C59.7211 93.8463 59.7211 93.7318 59.7782 93.6427C59.8354 93.5537 59.9391 93.5064 60.0434 93.522H63.6693C63.7736 93.5064 63.8773 93.5537 63.9345 93.6427C63.9916 93.7318 63.9916 93.8463 63.9345 93.9354C63.8773 94.0245 63.7736 94.0717 63.6693 94.0561Z" fill="#231F20"/>
<path d="M46.5273 61.3454C46.379 61.3454 46.2587 61.2245 46.2587 61.0754V58.4399C46.2587 58.2908 46.379 58.1699 46.5273 58.1699C46.6756 58.1699 46.7959 58.2908 46.7959 58.4399V61.0871C46.7896 61.2316 46.6712 61.3455 46.5273 61.3454Z" fill="#231F20"/>
<path d="M63.0273 61.345C62.9566 61.345 62.8889 61.3164 62.8394 61.2656C62.79 61.2148 62.763 61.1461 62.7646 61.075V58.4396C62.749 58.3347 62.796 58.2304 62.8847 58.173C62.9733 58.1155 63.0872 58.1155 63.1758 58.173C63.2644 58.2304 63.3114 58.3347 63.2959 58.4396V61.0868C63.2943 61.1568 63.2652 61.2234 63.2148 61.2718C63.1644 61.3203 63.097 61.3466 63.0273 61.345Z" fill="#231F20"/>
<rect x="41.8271" y="131.117" width="25.8772" height="19.5339" fill="#E7816B"/>
<path fill-rule="evenodd" clip-rule="evenodd" d="M41.8272 150.891H67.7102C67.8478 150.892 67.9638 150.788 67.9788 150.651V131.117C67.9757 130.969 67.8572 130.85 67.7102 130.847H41.8272C41.6811 130.85 41.5644 130.97 41.5645 131.117V150.627C41.5645 150.773 41.6821 150.891 41.8272 150.891ZM67.4591 150.381H42.1133V131.387H67.4591V150.381Z" fill="#231F20"/>
<path d="M55.7577 81.2137H53.79V74.8511C53.79 74.3052 54.7709 73.4248 54.7709 73.4248C54.7709 73.4248 55.7518 74.3052 55.7518 74.8511L55.7577 81.2137Z" fill="#231F20"/>
<path fill-rule="evenodd" clip-rule="evenodd" d="M53.79 81.5074H55.7576C55.9166 81.5042 56.0438 81.3737 56.0437 81.2139V74.8513C56.0437 74.2056 55.1446 73.3663 54.9636 73.2078C54.8544 73.1078 54.6874 73.1078 54.5782 73.2078C54.3972 73.3663 53.498 74.2056 53.498 74.8513V81.2139C53.498 81.376 53.6288 81.5074 53.79 81.5074ZM55.4657 80.9204H54.0878V74.8513C54.2206 74.4541 54.4588 74.101 54.7767 73.83C55.0946 74.101 55.3328 74.4541 55.4657 74.8513V80.9204Z" fill="#231F20"/>
<rect x="10.3213" y="132.121" width="31.5057" height="2.67065" fill="white"/>
<path fill-rule="evenodd" clip-rule="evenodd" d="M10.2979 135.044H41.8269C41.8966 135.045 41.9641 135.019 42.0144 134.971C42.0648 134.922 42.094 134.856 42.0955 134.785V132.109C42.0955 132.038 42.067 131.97 42.0165 131.92C41.966 131.87 41.8976 131.843 41.8269 131.845H10.2979C10.2282 131.845 10.1614 131.873 10.1121 131.922C10.0628 131.972 10.0352 132.039 10.0352 132.109V134.78C10.0352 134.925 10.1528 135.044 10.2979 135.044ZM41.5642 134.527H10.584V132.391H41.5642V134.527Z" fill="#231F20"/>
<rect x="10.3213" y="134.797" width="31.5057" height="15.8537" fill="white"/>
<path fill-rule="evenodd" clip-rule="evenodd" d="M10.298 150.891H41.8271C41.8977 150.893 41.9661 150.866 42.0166 150.816C42.0672 150.766 42.0957 150.698 42.0956 150.627V134.779C42.0972 134.707 42.0695 134.638 42.0187 134.587C41.968 134.536 41.8988 134.508 41.8271 134.509H10.298C10.2273 134.509 10.1596 134.538 10.1101 134.589C10.0607 134.64 10.0337 134.708 10.0353 134.779V150.627C10.0353 150.773 10.1529 150.891 10.298 150.891ZM41.5643 150.381H10.5841V135.044H41.5643V150.381Z" fill="#231F20"/>
<path d="M40.9452 132.391C40.8735 132.392 40.8043 132.364 40.7536 132.313C40.7028 132.262 40.6751 132.193 40.6767 132.121V100.724C40.6612 100.619 40.7081 100.515 40.7968 100.458C40.8854 100.4 40.9993 100.4 41.0879 100.458C41.1765 100.515 41.2235 100.619 41.208 100.724V132.109C41.2128 132.182 41.1873 132.254 41.1375 132.307C41.0877 132.36 41.0181 132.391 40.9452 132.391Z" fill="#231F20"/>
<path d="M190.679 132.109V116.431C171.995 113.302 153.312 90.3936 153.312 90.3936L154.339 94.9073C154.339 94.9073 173.367 116.525 190.691 118.538" fill="#231F20"/>
<path fill-rule="evenodd" clip-rule="evenodd" d="M190.387 132.12C190.387 132.282 190.517 132.414 190.679 132.414C190.763 132.422 190.847 132.394 190.909 132.335C190.97 132.277 191.004 132.194 191 132.109V118.509V116.408C190.999 116.263 190.896 116.14 190.755 116.114C172.57 113.074 154.106 90.8499 153.567 90.201C153.561 90.1947 153.558 90.1904 153.556 90.1882C153.47 90.0822 153.323 90.0484 153.2 90.106C153.083 90.1703 153.022 90.3035 153.048 90.4347L154.041 94.9719C154.051 95.021 154.075 95.0659 154.111 95.101C154.298 95.3182 173.215 116.613 190.387 118.796V132.12ZM190.387 118.204C173.863 116.055 155.676 95.9756 154.595 94.7665L153.848 91.4912C157.567 95.776 174.038 113.79 190.387 116.678V118.204Z" fill="#231F20"/>
<path d="M185.027 132.39C184.955 132.392 184.886 132.364 184.835 132.313C184.785 132.262 184.757 132.192 184.758 132.12V117.247C184.778 117.115 184.891 117.017 185.024 117.017C185.157 117.017 185.27 117.115 185.29 117.247V132.109C185.295 132.182 185.269 132.253 185.219 132.307C185.169 132.36 185.1 132.391 185.027 132.39Z" fill="#231F20"/>
<path d="M178.984 132.39C178.915 132.386 178.85 132.354 178.804 132.301C178.758 132.248 178.734 132.179 178.739 132.109V114.682C178.759 114.55 178.872 114.452 179.005 114.452C179.138 114.452 179.251 114.55 179.27 114.682V132.109C179.276 132.186 179.247 132.262 179.192 132.316C179.137 132.37 179.061 132.398 178.984 132.39Z" fill="#231F20"/>
<path d="M172.673 132.391C172.601 132.391 172.533 132.362 172.483 132.312C172.432 132.261 172.404 132.192 172.404 132.121V110.978C172.404 110.829 172.524 110.708 172.673 110.708C172.821 110.708 172.941 110.829 172.941 110.978V132.109C172.944 132.183 172.918 132.254 172.867 132.307C172.816 132.361 172.746 132.391 172.673 132.391Z" fill="#231F20"/>
<path d="M166.361 132.39C166.289 132.392 166.22 132.364 166.169 132.313C166.119 132.262 166.091 132.192 166.092 132.12V106.283C166.112 106.15 166.225 106.052 166.358 106.052C166.491 106.052 166.604 106.15 166.624 106.283V132.109C166.629 132.182 166.603 132.253 166.553 132.307C166.503 132.36 166.434 132.391 166.361 132.39Z" fill="#231F20"/>
<path d="M146.223 53.2865C146.077 53.2866 145.957 53.1692 145.954 53.0224V47.6929C145.954 47.5437 146.074 47.4229 146.223 47.4229C146.371 47.4229 146.491 47.5437 146.491 47.6929V53.0224C146.488 53.1692 146.369 53.2866 146.223 53.2865Z" fill="#231F20"/>
<path d="M146.97 54.4307H145.469L138.994 81.2194H153.451L146.97 54.4307Z" fill="#231F20"/>
<path fill-rule="evenodd" clip-rule="evenodd" d="M138.995 81.507H153.446C153.536 81.5075 153.622 81.4665 153.679 81.3955C153.733 81.3258 153.753 81.2349 153.732 81.1489L147.256 54.3661C147.224 54.233 147.107 54.1387 146.97 54.1372H145.47C145.334 54.1371 145.217 54.2327 145.19 54.3661L138.714 81.1489C138.693 81.2349 138.713 81.3258 138.767 81.3955C138.823 81.4649 138.906 81.5057 138.995 81.507ZM153.078 80.92H139.368L145.703 54.7242H146.743L153.078 80.92Z" fill="#231F20"/>
<rect x="146.965" y="54.4365" width="1.48887" height="2.00739" transform="rotate(-180 146.965 54.4365)" fill="#231F20"/>
<path fill-rule="evenodd" clip-rule="evenodd" d="M145.458 54.7242H146.964C147.116 54.712 147.233 54.5841 147.233 54.4308V52.4234C147.233 52.2613 147.102 52.1299 146.941 52.1299H145.458C145.297 52.1299 145.166 52.2613 145.166 52.4234V54.4308C145.166 54.5928 145.297 54.7242 145.458 54.7242ZM146.696 54.1373H145.797V52.7168H146.696V54.1373Z" fill="#231F20"/>
<path d="M143.064 80.3391V73.9941L146.223 68.6528L149.382 73.9941V80.3391H152.418V131.117H140.028V80.3391H143.064Z" fill="#E7816B"/>
<path fill-rule="evenodd" clip-rule="evenodd" d="M140.028 131.387H152.412C152.558 131.387 152.678 131.27 152.681 131.123V80.3451C152.681 80.274 152.652 80.2059 152.602 80.1562C152.551 80.1065 152.483 80.0794 152.412 80.0809H149.645V74.0001C149.645 73.9528 149.633 73.9062 149.61 73.8651L146.451 68.5238C146.4 68.4476 146.315 68.4019 146.223 68.4019C146.132 68.4019 146.047 68.4476 145.996 68.5238L142.837 73.8651C142.814 73.9062 142.801 73.9528 142.802 74.0001V80.0751H140.028C139.883 80.0751 139.766 80.1933 139.766 80.3392V131.117C139.766 131.264 139.882 131.384 140.028 131.387ZM152.15 130.847H140.297V80.6092H143.064C143.212 80.6061 143.33 80.487 143.333 80.3392V74.0646L146.223 69.1753L149.113 74.0646V80.3392C149.113 80.4883 149.234 80.6092 149.382 80.6092H152.15V130.847Z" fill="#231F20"/>
<path d="M152.412 85.2578H140.028C139.896 85.2381 139.799 85.1245 139.799 84.9907C139.799 84.857 139.896 84.7434 140.028 84.7237H152.412C152.516 84.7081 152.62 84.7553 152.677 84.8444C152.734 84.9335 152.734 85.048 152.677 85.1371C152.62 85.2262 152.516 85.2734 152.412 85.2578Z" fill="#231F20"/>
<path d="M148.412 94.9369H150.368V88.5743C150.368 88.0284 149.387 87.1479 149.387 87.1479C149.387 87.1479 148.412 88.0284 148.412 88.5743V94.9369Z" fill="#231F20"/>
<path d="M145.242 94.9369H147.21V88.5743C147.21 88.0284 146.229 87.1479 146.229 87.1479C146.229 87.1479 145.248 88.0284 145.248 88.5743L145.242 94.9369Z" fill="#231F20"/>
<path d="M142.077 94.9369H144.033V88.5743C144.033 88.0284 143.058 87.1479 143.058 87.1479C143.058 87.1479 142.077 88.0284 142.077 88.5743V94.9369Z" fill="#231F20"/>
<path d="M148.412 106.87H150.368V100.478C150.368 99.9376 149.387 99.0513 149.387 99.0513C149.387 99.0513 148.412 99.9376 148.412 100.478V106.87Z" fill="#231F20"/>
<path d="M145.242 106.87H147.21V100.478C147.21 99.9376 146.229 99.0513 146.229 99.0513C146.229 99.0513 145.248 99.9376 145.248 100.478L145.242 106.87Z" fill="#231F20"/>
<path d="M142.077 106.87H144.033V100.478C144.033 99.9376 143.058 99.0513 143.058 99.0513C143.058 99.0513 142.077 99.9376 142.077 100.478V106.87Z" fill="#231F20"/>
<path d="M148.412 118.755H150.368V112.387C150.368 111.841 149.387 110.96 149.387 110.96C149.387 110.96 148.412 111.841 148.412 112.387V118.755Z" fill="#231F20"/>
<path d="M145.242 118.755H147.21V112.387C147.21 111.841 146.229 110.96 146.229 110.96C146.229 110.96 145.248 111.841 145.248 112.387L145.242 118.755Z" fill="#231F20"/>
<path d="M142.077 118.755H144.033V112.387C144.033 111.841 143.058 110.96 143.058 110.96C143.058 110.96 142.077 111.841 142.077 112.387V118.755Z" fill="#231F20"/>
<path d="M151.489 97.478H140.98C140.832 97.4749 140.714 97.3558 140.711 97.208C140.714 97.0612 140.833 96.9439 140.98 96.9439H151.489C151.635 96.9439 151.755 97.0612 151.758 97.208C151.755 97.3558 151.636 97.4749 151.489 97.478Z" fill="#231F20"/>
<path d="M151.49 109.611H140.98C140.876 109.626 140.772 109.579 140.715 109.49C140.658 109.401 140.658 109.287 140.715 109.197C140.772 109.108 140.876 109.061 140.98 109.077H151.49C151.594 109.061 151.698 109.108 151.755 109.197C151.812 109.287 151.812 109.401 151.755 109.49C151.698 109.579 151.594 109.626 151.49 109.611Z" fill="#231F20"/>
<path d="M151.974 122.271H140.472C140.326 122.272 140.206 122.154 140.203 122.007C140.206 121.86 140.325 121.74 140.472 121.737H151.974C152.121 121.74 152.239 121.86 152.243 122.007C152.239 122.154 152.12 122.272 151.974 122.271Z" fill="#231F20"/>
<path d="M154.473 60.6113L151.519 71.922H157.427L154.473 60.6113Z" fill="#231F20"/>
<path fill-rule="evenodd" clip-rule="evenodd" d="M151.519 72.2393H157.428C157.527 72.2357 157.619 72.183 157.673 72.0984C157.726 72.0259 157.743 71.9329 157.72 71.846L154.8 60.5353C154.763 60.4043 154.644 60.314 154.508 60.314C154.373 60.314 154.254 60.4043 154.216 60.5353L151.239 71.8695C151.215 71.9572 151.234 72.0512 151.291 72.1219C151.345 72.1941 151.429 72.2374 151.519 72.2393ZM157.031 71.6523H151.881L154.456 61.7856L157.031 71.6523Z" fill="#231F20"/>
<path d="M156.365 71.9224L156.242 90.7754L155.115 93.7924V131.117H151.489V93.4108L152.371 91.4328V71.9224H156.365Z" fill="#E7816B"/>
<path fill-rule="evenodd" clip-rule="evenodd" d="M151.49 131.387H155.116C155.263 131.384 155.381 131.265 155.384 131.117V93.8393L156.482 90.8693C156.488 90.8382 156.488 90.8064 156.482 90.7754L156.61 71.9223C156.61 71.8495 156.58 71.7798 156.529 71.7286C156.479 71.6798 156.412 71.6524 156.342 71.6523H152.348C152.2 71.6523 152.08 71.7732 152.08 71.9223V91.3741L151.221 93.3052C151.215 93.3401 151.215 93.3759 151.221 93.4108V131.117C151.224 131.265 151.343 131.384 151.49 131.387ZM154.847 130.847H151.758L151.782 93.4695L152.64 91.5443C152.646 91.5073 152.646 91.4698 152.64 91.4328V72.1865H156.079L155.956 90.7226L154.847 93.6926C154.842 93.7237 154.842 93.7554 154.847 93.7865V130.847Z" fill="#231F20"/>
<path d="M156.283 84.4419H152.372C152.267 84.4575 152.164 84.4103 152.106 84.3212C152.049 84.2321 152.049 84.1176 152.106 84.0285C152.164 83.9394 152.267 83.8922 152.372 83.9078H156.283C156.388 83.8922 156.492 83.9394 156.549 84.0285C156.606 84.1176 156.606 84.2321 156.549 84.3212C156.492 84.4103 156.388 84.4575 156.283 84.4419Z" fill="#231F20"/>
<path d="M155.116 94.0561H151.49C151.385 94.0717 151.282 94.0245 151.225 93.9354C151.167 93.8463 151.167 93.7318 151.225 93.6427C151.282 93.5537 151.385 93.5064 151.49 93.522H155.116C155.22 93.5064 155.324 93.5537 155.381 93.6427C155.438 93.7318 155.438 93.8463 155.381 93.9354C155.324 94.0245 155.22 94.0717 155.116 94.0561Z" fill="#231F20"/>
<path d="M137.973 60.6113L140.927 71.922H135.019L137.973 60.6113Z" fill="#231F20"/>
<path fill-rule="evenodd" clip-rule="evenodd" d="M134.785 72.1218C134.841 72.1943 134.927 72.2375 135.018 72.2392H140.927C141.023 72.243 141.115 72.1991 141.172 72.1218C141.229 72.0512 141.249 71.9572 141.225 71.8694L138.27 60.5588C138.233 60.4277 138.114 60.3374 137.978 60.3374C137.843 60.3374 137.724 60.4277 137.686 60.5588L134.732 71.8694C134.711 71.9572 134.73 72.05 134.785 72.1218ZM137.973 61.7855L140.547 71.6523H135.398L137.973 61.7855Z" fill="#231F20"/>
<path d="M136.081 71.9224L136.204 90.7754L137.331 93.7924V131.117H140.956V93.4108L140.075 91.4328V71.9224H136.081Z" fill="#E7816B"/>
<path fill-rule="evenodd" clip-rule="evenodd" d="M137.331 131.387H140.957C141.099 131.378 141.211 131.26 141.214 131.117V93.4109C141.22 93.3759 141.22 93.3402 141.214 93.3052L140.355 91.3741V71.9224C140.355 71.7733 140.235 71.6524 140.087 71.6524H136.093C136.021 71.649 135.951 71.6764 135.899 71.7277C135.848 71.7791 135.821 71.8498 135.824 71.9224L135.953 90.7754C135.95 90.8067 135.95 90.8381 135.953 90.8693L137.062 93.8393V131.117C137.065 131.265 137.184 131.384 137.331 131.387ZM140.688 130.847H137.599L137.582 93.7865C137.587 93.7554 137.587 93.7237 137.582 93.6926L136.473 90.7226L136.35 72.1865H139.83V91.4328C139.822 91.4695 139.822 91.5076 139.83 91.5443L140.688 93.4695V130.847Z" fill="#231F20"/>
<path d="M140.075 84.4419H136.163C136.058 84.4575 135.955 84.4103 135.897 84.3212C135.84 84.2321 135.84 84.1176 135.897 84.0285C135.955 83.9394 136.058 83.8922 136.163 83.9078H140.075C140.179 83.8922 140.283 83.9394 140.34 84.0285C140.397 84.1176 140.397 84.2321 140.34 84.3212C140.283 84.4103 140.179 84.4575 140.075 84.4419Z" fill="#231F20"/>
<path d="M140.956 94.0561H137.331C137.226 94.0717 137.122 94.0245 137.065 93.9354C137.008 93.8463 137.008 93.7318 137.065 93.6427C137.122 93.5537 137.226 93.5064 137.331 93.522H140.956C141.061 93.5064 141.164 93.5537 141.222 93.6427C141.279 93.7318 141.279 93.8463 141.222 93.9354C141.164 94.0245 141.061 94.0717 140.956 94.0561Z" fill="#231F20"/>
<path d="M154.473 61.3454C154.333 61.3394 154.222 61.2272 154.216 61.0871V58.4399C154.216 58.2908 154.336 58.1699 154.484 58.1699C154.633 58.1699 154.753 58.2908 154.753 58.4399V61.0871C154.75 61.1587 154.719 61.2262 154.666 61.2747C154.613 61.3231 154.544 61.3485 154.473 61.3454Z" fill="#231F20"/>
<path d="M137.973 61.345C137.901 61.3466 137.832 61.3187 137.781 61.2677C137.73 61.2167 137.702 61.1471 137.704 61.075V58.4396C137.689 58.3347 137.735 58.2304 137.824 58.173C137.913 58.1155 138.027 58.1155 138.115 58.173C138.204 58.2304 138.251 58.3347 138.235 58.4396V61.0868C138.232 61.2303 138.115 61.3451 137.973 61.345Z" fill="#231F20"/>
<rect x="133.29" y="131.117" width="25.8772" height="19.5339" fill="#E7816B"/>
<path fill-rule="evenodd" clip-rule="evenodd" d="M133.29 150.891H159.173C159.31 150.892 159.424 150.787 159.436 150.651V131.117C159.436 130.97 159.319 130.85 159.173 130.847H133.29C133.143 130.85 133.025 130.969 133.021 131.117V150.627C133.025 150.774 133.144 150.891 133.29 150.891ZM158.887 150.357H133.559V131.387H158.887V150.357Z" fill="#231F20"/>
<path d="M145.242 81.2137H147.21V74.8511C147.21 74.3052 146.229 73.4248 146.229 73.4248C146.229 73.4248 145.248 74.3052 145.248 74.8511L145.242 81.2137Z" fill="#231F20"/>
<rect x="190.673" y="134.797" width="31.5057" height="2.67065" transform="rotate(-180 190.673 134.797)" fill="white"/>
<path fill-rule="evenodd" clip-rule="evenodd" d="M159.149 135.044H190.678C190.821 135.044 190.938 134.929 190.941 134.785V132.109C190.941 131.963 190.824 131.845 190.678 131.845H159.149C159.079 131.843 159.01 131.87 158.96 131.92C158.909 131.97 158.881 132.038 158.881 132.109V134.78C158.881 134.851 158.909 134.919 158.96 134.968C159.01 135.018 159.079 135.045 159.149 135.044ZM190.416 134.51H159.436V132.373H190.416V134.51Z" fill="#231F20"/>
<rect x="190.673" y="150.645" width="31.5057" height="15.8537" transform="rotate(-180 190.673 150.645)" fill="white"/>
<path fill-rule="evenodd" clip-rule="evenodd" d="M159.15 150.891H190.679C190.824 150.891 190.941 150.773 190.941 150.627V134.779C190.943 134.708 190.916 134.64 190.866 134.589C190.817 134.538 190.749 134.509 190.679 134.509H159.15C159.078 134.508 159.009 134.536 158.958 134.587C158.907 134.638 158.879 134.707 158.881 134.779V150.627C158.881 150.698 158.909 150.766 158.96 150.816C159.011 150.866 159.079 150.893 159.15 150.891ZM190.416 150.357H159.436V135.044H190.416V150.357Z" fill="#231F20"/>
<path d="M160.055 132.391C159.984 132.391 159.916 132.362 159.867 132.311C159.817 132.26 159.79 132.192 159.792 132.121V100.724C159.776 100.619 159.823 100.515 159.912 100.458C160.001 100.4 160.114 100.4 160.203 100.458C160.292 100.515 160.339 100.619 160.323 100.724V132.109C160.328 132.183 160.302 132.256 160.251 132.309C160.2 132.363 160.128 132.392 160.055 132.391Z" fill="#231F20"/>
<path d="M74.2842 151.478C74.1264 151.475 73.9984 151.349 73.9922 151.191C73.9907 151.113 74.02 151.038 74.0736 150.981C74.1273 150.925 74.2009 150.893 74.2783 150.891C77.3508 150.792 80.2298 149.36 82.1723 146.965C82.2244 146.9 82.3002 146.86 82.3825 146.853C82.4648 146.847 82.5456 146.877 82.6043 146.935C84.079 148.467 86.0058 149.48 88.0986 149.823C90.1844 150.137 92.2863 149.366 93.6804 147.775C93.778 147.654 93.952 147.631 94.0774 147.722C97.4755 149.972 102.025 149.204 104.505 145.961C104.563 145.889 104.65 145.847 104.742 145.847C104.834 145.847 104.921 145.889 104.978 145.961C107.413 149.401 112.761 150.328 116.2 147.91C116.322 147.82 116.492 147.844 116.586 147.962C117.487 148.984 118.777 149.573 120.136 149.582C121.492 149.659 122.816 149.143 123.767 148.168C123.833 148.101 123.926 148.069 124.018 148.08C124.109 148.093 124.189 148.147 124.234 148.227C124.616 148.825 125.22 149.244 125.912 149.39C126.604 149.536 127.325 149.396 127.913 149.001C128.043 148.907 128.223 148.933 128.321 149.06C128.367 149.123 128.386 149.202 128.374 149.279C128.362 149.356 128.32 149.425 128.257 149.471C127.544 149.982 126.647 150.162 125.793 149.964C125.059 149.819 124.401 149.415 123.937 148.825C121.71 150.708 118.426 150.583 116.346 148.538C112.767 150.886 107.425 149.976 104.774 146.618C102.093 149.792 97.5096 150.522 93.984 148.338C92.454 149.944 90.2471 150.709 88.0577 150.392C85.9422 150.058 83.9829 149.069 82.4525 147.563C80.402 149.963 77.4413 151.384 74.2959 151.478H74.2842Z" fill="#D1D3D4"/>
<path d="M115.751 154.067C114.617 154.103 113.517 153.68 112.697 152.893C110.216 154.687 106.779 154.254 104.815 151.901C102.613 153.38 99.9461 153.992 97.3237 153.62C97.2194 153.605 97.1314 153.534 97.0928 153.436C97.0542 153.337 97.0708 153.225 97.1365 153.142C97.2022 153.059 97.307 153.018 97.4113 153.034C99.9786 153.407 102.591 152.777 104.71 151.273C104.774 151.227 104.854 151.208 104.932 151.22C105.008 151.236 105.077 151.28 105.124 151.343C105.98 152.462 107.245 153.191 108.638 153.366C110.031 153.541 111.436 153.149 112.539 152.276C112.599 152.224 112.677 152.198 112.755 152.206C112.833 152.213 112.904 152.251 112.954 152.312C113.783 153.209 114.993 153.647 116.2 153.485C117.448 153.291 118.657 152.894 119.779 152.312C119.851 152.28 119.931 152.279 120.004 152.307C120.076 152.336 120.134 152.392 120.165 152.464C120.23 152.612 120.165 152.785 120.019 152.852C118.836 153.447 117.563 153.843 116.253 154.025C116.086 154.048 115.919 154.062 115.751 154.067Z" fill="#D1D3D4"/>
<path d="M81.5768 154.601C81.4325 154.599 81.3109 154.492 81.2907 154.348C81.2696 154.189 81.378 154.041 81.5359 154.014C82.7371 153.828 83.8392 153.236 84.6597 152.335C84.7133 152.279 84.7864 152.245 84.864 152.241C84.9425 152.237 85.0191 152.267 85.0742 152.323C85.6729 152.951 86.4736 153.344 87.3338 153.433C88.169 153.517 88.9863 153.151 89.4824 152.47C89.5355 152.389 89.6255 152.341 89.7218 152.341C89.8166 152.347 89.9049 152.392 89.967 152.464C90.5426 153.251 91.5721 153.552 92.4777 153.198C92.5745 153.152 92.6885 153.163 92.7747 153.227C92.861 153.291 92.9057 153.396 92.8912 153.503C92.8767 153.61 92.8054 153.7 92.7054 153.738C91.6765 154.139 90.5086 153.888 89.7335 153.098C89.0965 153.754 88.2022 154.092 87.2929 154.02C86.3964 153.933 85.5521 153.556 84.8874 152.945C83.9995 153.827 82.8572 154.405 81.6235 154.595L81.5768 154.601Z" fill="#D1D3D4"/>
<defs>
<linearGradient id="paint0_linear_0_6757" x1="0" y1="202" x2="202" y2="202" gradientUnits="userSpaceOnUse">
<stop stop-color="#5D0202" stop-opacity="0.01"/>
<stop offset="1" stop-color="#5D0202" stop-opacity="0.497569"/>
</linearGradient>
</defs>
</svg>
